<svg width="344" height="311" viewBox="0 0 344 311" fill="none" xmlns="http://www.w3.org/2000/svg">
<path d="M41.7993 73.5072C108.556 -10.5886 192.408 -6.99748 237.184 9.26743C281.96 25.5323 353.194 54.0406 343.018 172.787C332.842 291.533 197.576 311 72.3282 311C16.4419 311 -41.6464 178.627 41.7993 73.5072Z" fill="#3996C4" fill-opacity="0.31"/>
<path d="M275.146 189.75C275.027 189.75 274.908 189.743 274.79 189.736C275.139 187.678 275.502 185.613 275.984 183.541C276.445 185.536 276.802 187.517 277.137 189.505C276.484 189.66 275.817 189.742 275.146 189.75V189.75Z" fill="black"/>
<path d="M277.395 191.024C277.382 192.214 277.381 193.404 277.381 194.594C277.381 195.896 277.388 197.205 277.381 198.507V235.908C276.955 238.407 276.543 240.899 275.984 243.391C275.425 240.899 275.013 238.407 274.587 235.908V194.769C274.587 193.523 274.587 192.27 274.573 191.024C274.622 190.744 274.664 190.471 274.713 190.191C275.554 190.29 276.405 190.274 277.242 190.142C277.298 190.436 277.347 190.73 277.395 191.024Z" fill="black"/>
<path d="M229.983 127.772C229.983 127.772 230.13 128.031 230.416 128.437L230.402 128.451L228.349 130.656C227.51 131.251 226.672 131.846 225.771 132.378C226.246 131.447 226.784 130.572 227.315 129.69L228.872 128.031C229.55 127.891 229.983 127.772 229.983 127.772Z" fill="black"/>
<path d="M242.257 114.752C241.775 115.676 241.237 116.558 240.706 117.433L238.646 119.638L238.268 120.037C237.766 119.869 237.252 119.736 236.731 119.638L237.626 118.679L239.686 116.474C240.525 115.886 241.363 115.298 242.257 114.752Z" fill="black"/>
<path d="M265.092 131.71C265.2 131.468 265.367 131.256 265.577 131.094C265.735 130.975 265.919 130.898 266.114 130.869C266.309 130.842 266.508 130.867 266.69 130.94C266.935 131.038 267.151 131.197 267.318 131.402H267.32L267.329 131.415L267.32 131.428L267.322 131.428C267.214 131.669 267.046 131.879 266.835 132.038C266.678 132.156 266.493 132.231 266.297 132.256C266.102 132.279 265.903 132.253 265.72 132.179C265.475 132.077 265.259 131.916 265.092 131.71V131.71Z" fill="#020202"/>
<path d="M236.636 135.498L221.35 137.391C216.255 138.018 211.157 138.628 206.058 139.221C195.858 140.395 185.666 141.639 175.459 142.746L144.847 146.148L114.217 149.389L114.213 149.389C114.129 149.398 114.043 149.389 113.962 149.363C109.595 147.945 105.224 146.541 100.869 145.085L87.7927 140.754C83.431 139.319 79.0766 137.862 74.7292 136.382L61.6868 131.945L74.8762 135.922C79.2725 137.248 83.662 138.596 88.0447 139.965L101.2 144.047C105.59 145.396 109.962 146.797 114.339 148.184L114.084 148.158L144.697 144.762L175.327 141.526C185.534 140.42 195.756 139.451 205.971 138.413C211.078 137.892 216.188 137.396 221.3 136.924L236.636 135.498Z" fill="#020202"/>
<path d="M61.6848 138.468C66.013 139.977 70.3139 141.559 74.6278 143.106L87.5258 147.863L93.9721 150.249L100.398 152.688L113.249 157.567L112.92 157.527C119.045 156.698 125.181 155.965 131.313 155.195L149.713 152.92L168.129 150.77C174.274 150.095 180.414 149.392 186.565 148.771C180.456 149.722 174.337 150.591 168.221 151.487L149.858 154.051L131.479 156.49C125.351 157.292 119.228 158.131 113.092 158.873L113.085 158.874C112.976 158.887 112.866 158.873 112.764 158.833L99.9541 153.846L93.5493 151.352L87.1651 148.805L74.4024 143.695C70.1627 141.954 65.91 140.247 61.6848 138.468Z" fill="#020202"/>
<path d="M112.486 220.889C112.355 214.873 112.313 208.859 112.359 202.847C112.387 196.835 112.496 190.824 112.621 184.814C112.771 178.804 112.94 172.795 113.19 166.788C113.42 160.78 113.74 154.775 114.151 148.771C114.284 154.787 114.327 160.801 114.28 166.813C114.252 172.826 114.143 178.836 114.016 184.846C113.864 190.856 113.695 196.865 113.445 202.872C113.215 208.88 112.895 214.885 112.486 220.889Z" fill="#020202"/>
<path d="M299.863 83.9773C299.003 83.5923 298.214 83.0652 297.529 82.418C296.85 81.7515 296.263 80.9974 295.783 80.1756C295.311 79.3494 294.921 78.4792 294.618 77.5773C294.312 76.6659 294.092 75.7279 293.96 74.7756C293.954 74.732 293.955 74.6878 293.963 74.6445L293.978 74.5659C294.193 73.5874 294.304 72.5887 294.308 71.5866C294.315 70.5889 294.21 69.5935 293.995 68.6193C293.567 66.6777 292.762 64.8395 291.625 63.2094L291.702 63.2902C290.493 62.1324 289.147 61.1278 287.694 60.299C286.219 59.4878 284.617 58.933 282.957 58.6583C279.551 58.2273 276.097 58.9072 273.107 60.5972C272.355 61.0003 271.63 61.4517 270.937 61.9487C270.591 62.1961 270.252 62.4523 269.925 62.7191C269.772 62.8459 269.58 63.0034 269.478 63.1103C269.348 63.2506 269.214 63.4143 269.086 63.5731C268.086 64.9078 267.333 66.4114 266.863 68.0125C266.39 69.6055 266.142 71.257 266.125 72.9189C266.142 74.5865 266.342 76.247 266.72 77.8709C266.745 77.9869 266.747 78.1066 266.727 78.2235C266.568 79.0988 266.398 79.955 266.205 80.8201C266.02 81.7013 265.786 82.5715 265.504 83.4265C265.372 83.8267 265.059 84.5255 265.129 84.3801C265.1 84.33 265.145 84.4613 265.392 84.6335C265.952 84.975 266.591 85.1641 267.246 85.1819L267.313 85.1794C267.46 85.1743 267.605 85.2052 267.737 85.2695C267.869 85.3337 267.983 85.4294 268.07 85.548C269.049 86.906 270.084 88.2451 271.111 89.5715C272.112 90.8885 273.198 92.1383 274.362 93.3128C274.506 93.4439 274.65 93.5674 274.79 93.6749C274.857 93.7219 274.928 93.7723 274.985 93.807L275.063 93.8504C275.086 93.8629 275.081 93.8542 275.09 93.8643C275.117 93.8797 275.029 93.8494 275.005 93.874C274.983 93.887 275.074 93.8596 275.103 93.8547C275.194 93.8354 275.285 93.8115 275.374 93.7829C275.557 93.7316 275.748 93.6641 275.936 93.6004C276.701 93.3181 277.442 92.9747 278.152 92.5735C279.606 91.824 280.857 90.7332 281.799 89.3941L281.822 89.3589C281.84 89.3293 281.865 89.3038 281.894 89.2838C281.923 89.2637 281.955 89.2496 281.989 89.2421C282.024 89.2347 282.059 89.234 282.094 89.2403C282.128 89.2465 282.161 89.2595 282.191 89.2786L282.22 89.3001C282.638 89.6545 283.027 90.042 283.383 90.459C283.563 90.6674 283.725 90.8917 283.866 91.129C284.018 91.3672 284.122 91.6328 284.173 91.9109C284.176 91.9325 284.171 91.9544 284.159 91.9724C284.147 91.9904 284.128 92.0031 284.107 92.008C284.086 92.0129 284.063 92.0097 284.045 91.999C284.026 91.9882 284.011 91.9708 284.005 91.95L284.003 91.9449C283.804 91.472 283.494 91.0541 283.1 90.7267C282.72 90.3725 282.312 90.0492 281.88 89.76L282.301 89.666C281.458 91.2309 280.222 92.5481 278.715 93.4874C277.983 93.9781 277.212 94.4088 276.41 94.7752C276.203 94.8627 276.001 94.9556 275.78 95.0307C275.674 95.0712 275.562 95.1088 275.442 95.1423C275.374 95.1656 275.304 95.1834 275.233 95.1956C275.1 95.2165 274.965 95.2147 274.833 95.1903C274.535 95.1208 274.252 94.994 274.002 94.817C273.796 94.6793 273.61 94.5366 273.432 94.3922C272.13 93.2374 270.922 91.9817 269.817 90.6367C268.696 89.337 267.65 87.996 266.605 86.6313L267.428 86.9971C266.88 87.0316 266.33 86.9718 265.802 86.8205C265.283 86.6868 264.79 86.4659 264.344 86.1672C264.07 85.9857 263.832 85.7559 263.641 85.4889C263.392 85.1496 263.265 84.7362 263.28 84.3155C263.285 84.11 263.326 83.907 263.402 83.7162L263.501 83.469L263.554 83.3503C263.626 83.1982 263.695 83.0044 263.76 82.8195C264.274 81.2041 264.699 79.5621 265.034 77.9005L265.041 78.2527C264.68 76.4858 264.516 74.6843 264.551 72.8812C264.623 71.0699 264.978 69.2811 265.601 67.5794C265.754 67.1547 265.948 66.7447 266.128 66.3322C266.344 65.935 266.526 65.5223 266.772 65.1424C267.225 64.3618 267.758 63.6296 268.36 62.9573C268.516 62.7893 268.666 62.6256 268.843 62.4593C269.021 62.3064 269.207 62.1629 269.4 62.0295C269.762 61.7712 270.131 61.5287 270.506 61.2963C271.255 60.8296 272.036 60.4244 272.823 60.0368C275.984 58.4436 279.51 57.7212 283.041 57.9435C284.823 58.0935 286.568 58.5416 288.203 59.2691C289.841 60.009 291.358 60.9909 292.705 62.1821C292.731 62.2045 292.755 62.229 292.776 62.2554L292.782 62.2631C293.472 63.1481 294.046 64.118 294.49 65.1491C294.939 66.1621 295.269 67.2238 295.474 68.3129C295.699 69.3997 295.784 70.5109 295.728 71.6195C295.679 72.7238 295.507 73.8192 295.215 74.8852L295.233 74.6758C295.3 75.5506 295.446 76.4175 295.669 77.2658C295.886 78.1265 296.179 78.9659 296.545 79.7739C296.917 80.5808 297.387 81.3388 297.943 82.031C298.518 82.7239 299.192 83.3279 299.943 83.8232L299.948 83.8269C299.966 83.8393 299.979 83.8579 299.984 83.8791C299.988 83.9003 299.985 83.9226 299.974 83.9415C299.964 83.9604 299.946 83.9746 299.925 83.9812C299.905 83.9878 299.882 83.9865 299.863 83.9773L299.863 83.9773Z" fill="black"/>
<path d="M268.274 82.9968C268.124 82.9971 267.975 82.9578 267.844 82.8828C267.713 82.8079 267.604 82.6999 267.527 82.5696L265.134 78.5036C265.076 78.4053 265.037 78.2965 265.021 78.1834C265.005 78.0703 265.011 77.955 265.04 77.8443C265.068 77.7336 265.118 77.6296 265.186 77.5382C265.255 77.4469 265.341 77.3699 265.439 77.3119C265.537 77.2538 265.646 77.2157 265.759 77.1997C265.872 77.1838 265.987 77.1904 266.097 77.219C266.207 77.2477 266.311 77.2979 266.402 77.3668C266.493 77.4356 266.57 77.5218 266.627 77.6204L269.02 81.6864C269.098 81.8183 269.14 81.9684 269.141 82.1216C269.142 82.2748 269.103 82.4255 269.027 82.5586C268.951 82.6916 268.842 82.8022 268.71 82.8792C268.577 82.9562 268.427 82.9968 268.274 82.9968V82.9968Z" fill="black"/>
<path d="M266.406 79.3888C266.314 79.3887 266.224 79.3592 266.15 79.3044C266.076 79.2497 266.021 79.1727 265.993 79.0845C265.965 78.9964 265.966 78.9017 265.996 78.8142C266.026 78.7267 266.082 78.6509 266.158 78.5979C267.416 77.7188 278.521 70.0263 280.883 70.1214C280.939 70.124 280.995 70.1377 281.047 70.162C281.098 70.1862 281.145 70.2203 281.183 70.2625C281.221 70.3046 281.251 70.354 281.271 70.4076C281.29 70.4613 281.299 70.5182 281.296 70.5753C281.289 70.6898 281.238 70.7972 281.153 70.8745C281.069 70.9519 280.957 70.9931 280.843 70.9895C280.832 70.9888 280.821 70.9888 280.81 70.9888C279.174 70.9888 271.28 76.0775 266.654 79.3102C266.581 79.3612 266.495 79.3886 266.406 79.3888V79.3888Z" fill="black"/>
<path d="M279.614 72.6406C279.599 71.9919 279.807 71.3577 280.204 70.8448C280.324 70.7053 280.47 70.5914 280.634 70.5096C280.799 70.4278 280.978 70.3799 281.161 70.3686L281.44 70.3642C281.529 70.3745 281.613 70.4003 281.7 70.4189C281.87 70.4518 282.035 70.5095 282.188 70.5903C282.49 70.7284 282.774 70.9002 283.037 71.1023C283.277 71.3144 283.53 71.5073 283.76 71.7392C284.218 72.2086 284.598 72.7502 284.881 73.3424C285.424 74.5344 285.578 75.8676 285.321 77.1523C285.205 77.7913 284.957 78.3992 284.595 78.9378C284.409 79.2174 284.153 79.4435 283.853 79.5934C283.704 79.6692 283.533 79.6931 283.369 79.6612C283.204 79.6293 283.055 79.5435 282.944 79.4172C283.063 79.4948 283.204 79.5332 283.346 79.5271C283.488 79.521 283.624 79.4706 283.737 79.383C283.953 79.2048 284.122 78.9765 284.23 78.7179C284.465 78.1907 284.607 77.627 284.652 77.0514C284.763 75.9081 284.572 74.7555 284.096 73.71C283.86 73.1961 283.546 72.7218 283.166 72.3037C282.981 72.0891 282.758 71.8962 282.556 71.6889C282.345 71.5068 282.121 71.3412 281.885 71.1934C281.691 71.0338 281.449 70.9431 281.198 70.9355C280.947 70.9279 280.7 71.0037 280.497 71.1512C280.071 71.5561 279.765 72.0718 279.614 72.6406Z" fill="black"/>
<path d="M269.083 88.69C269.747 88.6162 270.404 88.492 271.05 88.3184C271.346 88.2359 271.632 88.1235 271.906 87.983C272.2 87.849 272.475 87.6605 272.834 87.478C272.775 87.871 272.595 88.2356 272.318 88.5203C272.042 88.8194 271.689 89.0372 271.298 89.1504C270.914 89.2631 270.508 89.2824 270.116 89.2064C269.728 89.1406 269.368 88.9608 269.083 88.69V88.69Z" fill="black"/>
<path d="M266.406 76.3689C266.375 75.7735 266.569 75.1883 266.95 74.7301C267.328 74.2581 267.827 73.8975 268.393 73.6863C268.942 73.484 269.525 73.3907 270.109 73.4113C270.392 73.4325 270.673 73.4688 270.953 73.5202C271.227 73.5909 271.496 73.6801 271.759 73.7873C271.49 73.8566 271.217 73.9098 270.941 73.9467C270.676 73.9955 270.416 74.0534 270.159 74.0874C269.664 74.1847 269.178 74.3215 268.704 74.4965C267.746 74.8361 266.934 75.4977 266.406 76.3689V76.3689Z" fill="black"/>
<path d="M270.042 80.0818C270.295 80.073 270.535 79.9662 270.711 79.7839C270.886 79.6015 270.985 79.3579 270.985 79.1044C270.985 78.8509 270.886 78.6072 270.711 78.4249C270.535 78.2426 270.295 78.1357 270.042 78.127C269.79 78.1357 269.55 78.2426 269.374 78.4249C269.198 78.6072 269.1 78.8509 269.1 79.1044C269.1 79.3579 269.198 79.6015 269.374 79.7839C269.55 79.9662 269.79 80.073 270.042 80.0818V80.0818Z" fill="black"/>
<path d="M289.707 104.856C288.715 104.028 287.589 103.375 286.379 102.926C285.185 102.477 283.945 102.16 282.683 101.979C281.413 101.787 280.131 101.682 278.847 101.662L276.9 101.671C276.25 101.701 275.597 101.733 274.933 101.728C275.565 101.543 276.209 101.396 276.855 101.247C277.507 101.148 278.164 101.048 278.825 100.985C280.156 100.878 281.495 100.923 282.816 101.121C284.149 101.316 285.443 101.717 286.653 102.309C287.873 102.88 288.924 103.758 289.707 104.856V104.856Z" fill="black"/>
<path d="M241.052 140.497C241.422 139.266 241.914 138.075 242.521 136.942C243.113 135.796 243.806 134.705 244.591 133.682C245.372 132.641 246.285 131.707 247.306 130.902C248.317 130.075 249.515 129.508 250.794 129.252C249.673 129.813 248.645 130.543 247.746 131.417C246.848 132.28 246.023 133.215 245.277 134.213C243.738 136.186 242.422 138.335 241.052 140.497Z" fill="black"/>
<path d="M271.759 153.856C272.149 153.955 272.555 153.976 272.953 153.917C273.349 153.873 273.738 153.784 274.114 153.653L274.668 153.434C274.85 153.356 275.02 153.248 275.195 153.157C275.545 152.969 275.879 152.753 276.195 152.512C277.463 151.547 278.593 150.41 279.551 149.135C280.016 148.483 280.487 147.837 280.931 147.171C281.347 146.485 281.795 145.82 282.185 145.119L283.348 143.008L284.407 140.839C285.806 137.924 287.175 134.977 288.622 132.077L290.789 127.724C291.539 126.287 292.263 124.837 293.036 123.413C292.438 124.925 291.791 126.412 291.17 127.912L289.223 132.367C287.917 135.336 286.577 138.277 285.189 141.213C283.836 144.196 282.115 146.998 280.068 149.553C279.016 150.822 277.792 151.937 276.43 152.864C276.082 153.087 275.718 153.283 275.34 153.449C275.149 153.529 274.967 153.625 274.771 153.691L274.18 153.872C273.39 154.112 272.546 154.106 271.759 153.856V153.856Z" fill="black"/>
<path d="M270.958 134.274C270.906 134.274 270.854 134.264 270.805 134.246L266.925 132.786C266.818 132.745 266.731 132.663 266.684 132.558C266.636 132.454 266.633 132.334 266.673 132.227C266.713 132.119 266.795 132.032 266.899 131.984C267.003 131.937 267.122 131.932 267.23 131.972L271.11 133.432C271.205 133.468 271.285 133.536 271.335 133.625C271.385 133.713 271.402 133.817 271.384 133.917C271.366 134.017 271.314 134.108 271.236 134.173C271.158 134.238 271.059 134.274 270.958 134.274V134.274Z" fill="black"/>
<path d="M239.086 133.192C238.153 133.484 237.164 133.549 236.201 133.382C235.224 133.205 234.287 132.847 233.44 132.327C232.599 131.814 231.825 131.198 231.136 130.493C230.446 129.781 229.832 128.998 229.307 128.157L230.189 128.523C228.398 128.984 226.551 129.184 224.704 129.117C223.759 129.102 222.822 128.943 221.925 128.645C221.446 128.482 221.022 128.189 220.7 127.798C220.533 127.598 220.405 127.367 220.324 127.118C220.265 126.856 220.265 126.583 220.324 126.321C220.454 125.841 220.707 125.404 221.058 125.052C221.37 124.705 221.713 124.386 222.082 124.1C222.796 123.524 223.547 122.997 224.331 122.521C225.875 121.564 227.483 120.716 229.145 119.984C229.982 119.641 230.765 119.239 231.727 118.944C232.664 118.658 233.636 118.506 234.615 118.492C235.582 118.488 236.546 118.617 237.478 118.877C238.399 119.108 239.295 119.432 240.151 119.844C241.82 120.661 243.365 121.707 244.744 122.953C246.118 124.156 247.336 125.526 248.373 127.03C248.385 127.047 248.39 127.068 248.388 127.09C248.385 127.111 248.375 127.13 248.36 127.144C248.344 127.158 248.324 127.166 248.303 127.167C248.281 127.167 248.261 127.159 248.245 127.146L248.241 127.142C245.636 124.778 242.669 122.849 239.454 121.427C238.679 121.097 237.873 120.845 237.048 120.675C236.252 120.46 235.43 120.347 234.605 120.339C233.791 120.313 232.977 120.399 232.185 120.594C231.419 120.779 230.574 121.144 229.74 121.44C228.081 122.074 226.411 122.676 224.791 123.386C223.99 123.745 223.214 124.159 222.469 124.625C222.111 124.863 221.776 125.134 221.468 125.434C221.173 125.707 220.955 126.054 220.837 126.438C220.789 126.617 220.791 126.805 220.843 126.982C220.894 127.16 220.993 127.32 221.128 127.446C221.39 127.742 221.741 127.946 222.128 128.027C222.964 128.197 223.823 128.22 224.667 128.094C226.388 127.825 228.094 127.467 229.778 127.021C229.944 126.982 230.119 126.996 230.277 127.062C230.435 127.128 230.569 127.242 230.66 127.387C231.115 128.133 231.635 128.837 232.214 129.491C232.787 130.16 233.427 130.769 234.123 131.307C234.815 131.846 235.585 132.275 236.407 132.579C237.256 132.886 238.154 133.035 239.057 133.02C239.08 133.02 239.103 133.029 239.12 133.045C239.136 133.061 239.146 133.083 239.147 133.106C239.147 133.125 239.141 133.143 239.13 133.159C239.119 133.174 239.104 133.185 239.086 133.192V133.192Z" fill="black"/>
<path d="M253.748 194.292L255.695 199.058C255.704 199.08 255.707 199.104 255.702 199.127C255.698 199.151 255.687 199.172 255.67 199.189C255.654 199.206 255.633 199.218 255.61 199.224C255.587 199.229 255.563 199.228 255.541 199.22L255.533 199.217C254.556 198.835 253.533 198.585 252.489 198.473C251.452 198.386 250.407 198.464 249.394 198.705C247.38 199.273 245.551 200.362 244.089 201.863C242.61 203.356 241.332 205.037 240.29 206.863C239.22 208.675 238.32 210.583 237.602 212.562L237.6 212.566C237.576 212.634 237.531 212.692 237.473 212.734C237.414 212.776 237.345 212.798 237.273 212.799C237.201 212.8 237.131 212.779 237.072 212.739C237.012 212.698 236.966 212.641 236.941 212.574L233.16 202.787L229.444 192.976L230.134 192.809L231.464 206.376C231.894 210.9 232.362 215.42 232.832 219.939C232.835 219.969 232.829 219.999 232.814 220.025C231.793 221.636 230.247 222.843 228.439 223.443C226.668 224.054 224.817 224.401 222.945 224.472C221.082 224.561 219.216 224.518 217.36 224.342C215.502 224.175 213.655 223.898 211.83 223.512C211.786 223.503 211.747 223.48 211.716 223.448C211.686 223.416 211.666 223.375 211.659 223.331L211.658 223.325C210.596 216.463 209.704 209.579 208.983 202.674C208.281 195.766 207.747 188.837 207.567 181.884C207.553 180.144 207.537 178.405 207.562 176.665L207.649 174.053L207.697 172.748L207.804 171.443L208.024 168.834L208.418 166.234C208.555 165.366 208.745 164.507 208.987 163.662C209.098 163.236 209.195 162.807 209.317 162.384L209.78 161.143L210.25 159.905C210.444 159.508 210.658 159.12 210.862 158.727C211.073 158.338 211.263 157.938 211.492 157.56L212.255 156.47C212.768 155.746 213.341 155.067 213.967 154.439C214.282 154.126 214.614 153.831 214.962 153.556C215.29 153.257 215.642 152.986 216.015 152.746L217.13 152.022L218.319 151.43C218.719 151.24 219.129 151.075 219.548 150.935C219.96 150.774 220.382 150.642 220.812 150.541C222.521 150.072 224.298 149.902 226.065 150.038L225.781 150.2C226.151 149.402 226.609 148.647 227.146 147.951C227.697 147.269 228.32 146.648 229.004 146.1C230.39 145.044 231.951 144.24 233.615 143.725C235.264 143.215 236.963 142.89 238.684 142.754C240.395 142.604 242.117 142.61 243.828 142.77C243.84 142.772 243.85 142.777 243.857 142.786C243.865 142.795 243.868 142.806 243.867 142.818C243.866 142.829 243.86 142.84 243.851 142.847C243.842 142.854 243.83 142.858 243.819 142.857C242.114 142.747 240.404 142.791 238.707 142.99C237.015 143.173 235.348 143.543 233.737 144.092C232.13 144.62 230.628 145.424 229.296 146.468C228.651 147.002 228.064 147.604 227.548 148.265C227.048 148.935 226.624 149.658 226.283 150.422C226.26 150.473 226.222 150.516 226.174 150.545C226.126 150.574 226.071 150.588 226.015 150.585L225.999 150.584C222.59 150.392 219.215 151.359 216.423 153.329C213.699 155.377 211.664 158.21 210.593 161.449L210.149 162.645C210.032 163.055 209.939 163.473 209.833 163.886C209.599 164.708 209.417 165.544 209.286 166.389L208.907 168.934L208.697 171.51L208.594 172.798L208.55 174.091L208.471 176.68C208.448 178.407 208.478 180.137 208.484 181.865C208.611 188.784 209.108 195.7 209.745 202.599C210.369 209.5 211.157 216.386 212.107 223.256L211.935 223.069C213.736 223.479 215.559 223.782 217.396 223.978C219.232 224.186 221.082 224.249 222.928 224.165C224.772 224.106 226.596 223.776 228.344 223.185C230.098 222.622 231.596 221.452 232.567 219.884L232.55 219.97C232.05 215.453 231.548 210.937 231.008 206.426L229.422 192.886C229.412 192.8 229.433 192.712 229.483 192.641C229.533 192.569 229.606 192.518 229.691 192.497C229.775 192.476 229.864 192.487 229.942 192.527C230.019 192.567 230.079 192.634 230.11 192.715L230.112 192.719L233.888 202.508L237.597 212.322L236.936 212.334C237.685 210.316 238.619 208.371 239.727 206.526C240.821 204.667 242.161 202.965 243.71 201.466C245.261 199.933 247.187 198.836 249.294 198.285C250.355 198.053 251.448 198 252.526 198.129C253.593 198.277 254.637 198.566 255.628 198.989L255.466 199.148L253.667 194.323C253.663 194.313 253.664 194.301 253.668 194.29C253.673 194.28 253.682 194.272 253.692 194.268C253.703 194.263 253.715 194.264 253.725 194.268C253.736 194.273 253.744 194.281 253.748 194.292H253.748Z" fill="black"/>
<path d="M229.778 192.848L230.55 200.007L225.772 172.857L230.991 196.019L229.778 192.848Z" fill="black"/>
<path d="M265.167 154.612C255.527 154.612 227.32 150.919 225.976 150.742C225.919 150.735 225.865 150.717 225.815 150.688C225.766 150.66 225.722 150.622 225.688 150.577C225.653 150.531 225.627 150.48 225.612 150.425C225.598 150.369 225.594 150.312 225.601 150.255C225.608 150.198 225.627 150.144 225.655 150.094C225.684 150.045 225.722 150.002 225.767 149.967C225.813 149.932 225.864 149.907 225.919 149.892C225.974 149.877 226.032 149.873 226.088 149.881C226.457 149.929 263.08 154.72 267.639 153.575C267.695 153.561 267.752 153.558 267.809 153.566C267.865 153.574 267.919 153.594 267.968 153.623C268.017 153.652 268.06 153.691 268.094 153.737C268.128 153.782 268.153 153.835 268.167 153.89C268.181 153.945 268.184 154.003 268.175 154.06C268.167 154.116 268.148 154.17 268.118 154.219C268.089 154.268 268.05 154.311 268.004 154.345C267.958 154.379 267.906 154.404 267.851 154.417C266.966 154.577 266.066 154.642 265.167 154.612V154.612Z" fill="black"/>
<path d="M330.906 106.94C330.906 106.94 299.694 99.646 291.996 136.97C284.297 174.287 282.334 171.578 282.334 171.578C268.286 191.983 240.888 179.467 234.671 176.254C233.965 175.871 233.159 175.712 232.36 175.798C231.562 175.884 230.808 176.212 230.2 176.737C228.53 178.27 228.789 180.748 228.789 180.748L228.908 183.555C228.929 184.007 229.047 184.45 229.254 184.852C229.462 185.254 229.753 185.607 230.109 185.886C240.238 193.95 258.269 195.623 274.587 194.769C275.523 194.72 276.459 194.664 277.382 194.594C291.486 193.607 303.857 190.835 308.021 188.889C317.382 184.507 320.085 186.383 334.65 147.806C349.222 109.236 330.906 106.94 330.906 106.94ZM337.116 117.223L337.109 117.216C333.016 114.981 328.304 114.155 323.697 114.864C319.17 115.627 315.209 118.28 312.177 121.689C310.649 123.413 309.287 125.279 308.112 127.261C306.909 129.25 305.84 131.317 304.912 133.449C303.082 137.754 301.553 142.182 300.336 146.7C299.743 148.968 299.121 151.243 298.59 153.539C298.311 154.687 297.982 155.821 297.689 156.962C297.396 158.103 297.081 159.237 296.76 160.371C295.573 164.951 294.101 169.451 292.352 173.846C291.912 174.945 291.381 176.009 290.871 177.08C290.298 178.13 289.774 179.194 289.124 180.195C287.898 182.26 286.433 184.173 284.758 185.893C283.079 187.652 281.009 188.988 278.716 189.792C278.235 189.948 277.742 190.065 277.242 190.142C276.405 190.274 275.554 190.29 274.713 190.191C273.655 190.061 272.636 189.708 271.723 189.155C271.715 189.15 271.708 189.144 271.703 189.136C271.697 189.129 271.693 189.12 271.691 189.111C271.689 189.101 271.689 189.092 271.691 189.083C271.693 189.074 271.697 189.065 271.702 189.057C271.71 189.043 271.723 189.033 271.739 189.027C271.754 189.022 271.771 189.023 271.786 189.029L271.793 189.036C272.735 189.47 273.754 189.708 274.79 189.736C274.909 189.743 275.027 189.75 275.146 189.75C275.817 189.742 276.484 189.66 277.137 189.505C277.592 189.397 278.04 189.262 278.478 189.099C280.587 188.209 282.468 186.855 283.983 185.137C285.535 183.427 286.903 181.557 288.063 179.558C288.677 178.571 289.201 177.528 289.76 176.513C290.256 175.456 290.829 174.441 291.29 173.37C293.284 169.124 294.965 164.737 296.32 160.245C297.018 157.998 297.556 155.709 298.108 153.427C298.639 151.131 299.079 148.828 299.596 146.518C300.557 141.875 301.932 137.328 303.704 132.931C305.452 128.462 307.944 124.322 311.074 120.688C312.695 118.881 314.591 117.341 316.69 116.124C318.802 114.913 321.126 114.117 323.536 113.779C328.334 113.235 333.17 114.41 337.186 117.097C337.194 117.102 337.201 117.108 337.206 117.116C337.211 117.124 337.215 117.132 337.217 117.142C337.219 117.151 337.219 117.16 337.218 117.169C337.216 117.179 337.212 117.187 337.207 117.195C337.197 117.209 337.183 117.22 337.167 117.225C337.15 117.23 337.132 117.229 337.116 117.223H337.116Z" fill="black"/>
<path d="M306.44 242.927C306.426 243.646 306.199 244.344 305.788 244.934C305.385 245.515 304.897 246.032 304.342 246.47C303.238 247.338 302.033 248.071 300.755 248.652C298.202 249.818 295.54 250.727 292.807 251.365C287.349 252.662 281.746 253.246 276.138 253.101C270.55 252.955 264.987 252.288 259.522 251.107C256.78 250.551 254.094 249.751 251.495 248.715C250.177 248.187 248.928 247.5 247.776 246.669C247.179 246.235 246.654 245.711 246.219 245.115C245.751 244.479 245.483 243.717 245.448 242.927C245.448 242.127 245.685 241.344 246.128 240.678C246.543 240.049 247.053 239.488 247.639 239.014C248.764 238.103 250.009 237.35 251.338 236.778C253.932 235.642 256.64 234.786 259.414 234.223C264.914 233.074 270.52 232.514 276.138 232.55C281.752 232.524 287.35 233.166 292.813 234.463C295.544 235.11 298.206 236.023 300.76 237.189C302.04 237.771 303.244 238.506 304.348 239.377C304.903 239.816 305.39 240.335 305.792 240.917C306.202 241.508 306.427 242.208 306.44 242.927V242.927ZM306.267 242.927C306.242 241.541 305.26 240.39 304.188 239.579C303.078 238.764 301.86 238.109 300.569 237.632C297.984 236.676 295.309 235.989 292.584 235.584C287.141 234.762 281.642 234.368 276.138 234.403C270.641 234.378 265.153 234.853 259.742 235.824C257.059 236.314 254.429 237.057 251.886 238.043C250.644 238.532 249.466 239.169 248.377 239.941C247.337 240.706 246.441 241.74 246.398 242.927C246.361 244.119 247.22 245.249 248.241 246.084C249.302 246.939 250.475 247.642 251.729 248.173C254.267 249.26 256.919 250.059 259.635 250.555C262.352 251.066 265.101 251.392 267.862 251.531C270.619 251.7 273.382 251.716 276.138 251.655C281.646 251.572 287.142 251.118 292.589 250.297C295.314 249.883 297.989 249.192 300.574 248.235C301.866 247.757 303.084 247.1 304.194 246.284C305.266 245.47 306.246 244.313 306.267 242.927Z" fill="black"/>
<path d="M231.116 221.8C231.572 222.635 231.909 223.531 232.117 224.46C232.358 225.377 232.543 226.306 232.701 227.238C233.011 229.104 233.263 230.978 233.438 232.859C233.52 233.809 233.612 234.72 233.657 235.702C233.681 236.694 233.512 237.682 233.162 238.61C232.985 239.078 232.753 239.523 232.471 239.936C232.186 240.336 231.874 240.715 231.537 241.072C230.866 241.783 230.091 242.389 229.239 242.868C227.545 243.797 225.672 244.351 223.746 244.492C222.793 244.575 221.834 244.552 220.887 244.424C220.41 244.366 219.94 244.268 219.48 244.131C219.023 243.99 218.584 243.83 218.139 243.668C214.579 242.372 211.341 240.4 207.84 239.054C204.362 237.665 200.773 236.495 197.326 234.921C195.567 234.166 193.895 233.219 192.342 232.097C191.558 231.51 190.851 230.826 190.237 230.061C189.885 229.631 189.658 229.112 189.58 228.561C189.54 228.278 189.546 227.99 189.599 227.709C189.661 227.437 189.757 227.175 189.885 226.928C190.42 226.035 191.21 225.323 192.153 224.884C193.039 224.442 193.991 224.151 194.972 224.023C195.458 223.958 195.948 223.926 196.438 223.928C196.924 223.948 197.426 223.985 197.871 224.021C198.787 224.098 199.722 224.098 200.654 224.085C204.391 224.01 208.139 223.647 211.876 223.248C211.887 223.246 211.899 223.25 211.908 223.257C211.917 223.264 211.923 223.274 211.924 223.286C211.925 223.296 211.922 223.308 211.916 223.316C211.909 223.325 211.9 223.332 211.889 223.334C208.185 224.045 204.44 224.523 200.676 224.764C199.729 224.804 198.781 224.831 197.821 224.777C197.328 224.751 196.892 224.733 196.439 224.726C195.989 224.737 195.54 224.779 195.096 224.851C194.213 224.993 193.359 225.271 192.561 225.675C191.792 226.04 191.147 226.624 190.706 227.354C190.526 227.694 190.455 228.081 190.501 228.463C190.547 228.845 190.709 229.204 190.965 229.491C191.534 230.193 192.182 230.828 192.895 231.382C194.38 232.486 195.981 233.424 197.669 234.179C201.048 235.779 204.583 237.062 208.027 238.617C209.753 239.381 211.428 240.251 213.105 241.104C214.755 241.996 216.472 242.759 218.24 243.385C219.103 243.728 220.007 243.957 220.928 244.07C221.85 244.152 222.779 244.133 223.697 244.011C225.527 243.793 227.291 243.192 228.873 242.245C229.649 241.778 230.357 241.204 230.975 240.541C231.602 239.904 232.104 239.153 232.454 238.329C232.784 237.496 232.951 236.606 232.944 235.709C232.918 234.809 232.84 233.843 232.775 232.915C232.63 231.042 232.493 229.167 232.252 227.305C232.101 225.438 231.693 223.6 231.041 221.845L231.039 221.84C231.034 221.83 231.034 221.819 231.038 221.808C231.041 221.798 231.049 221.789 231.059 221.784C231.068 221.779 231.08 221.778 231.09 221.781C231.101 221.784 231.11 221.791 231.116 221.8L231.116 221.8Z" fill="black"/>
<path d="M215.295 223.907C215.381 224.911 215.528 225.909 215.734 226.895C215.923 227.867 216.207 228.818 216.585 229.733C216.918 230.612 217.493 231.378 218.244 231.941C218.608 232.186 219.025 232.337 219.46 232.383C219.912 232.417 220.365 232.37 220.799 232.243C221.72 231.969 222.59 231.544 223.372 230.986C224.184 230.453 224.909 229.798 225.523 229.045C226.777 227.495 227.495 225.58 227.569 223.586C227.828 225.663 227.289 227.761 226.061 229.455C224.807 231.168 223.043 232.439 221.021 233.082C220.483 233.23 219.923 233.278 219.368 233.226C218.796 233.161 218.251 232.953 217.782 232.619C216.922 231.945 216.286 231.026 215.958 229.982C215.327 228.023 215.101 225.956 215.295 223.907V223.907Z" fill="black"/>
<path d="M200.333 229.39C200.097 228.84 200.016 228.235 200.101 227.642C200.173 227.032 200.392 226.448 200.738 225.941C201.083 225.434 201.543 225.016 202.081 224.724C202.341 224.579 202.615 224.463 202.9 224.378C203.184 224.306 203.475 224.26 203.768 224.241C203.543 224.442 203.306 224.588 203.09 224.76C202.883 224.945 202.654 225.087 202.47 225.279C202.376 225.371 202.279 225.458 202.181 225.542L201.922 225.829C201.749 226.014 201.592 226.215 201.455 226.428C200.876 227.325 200.494 228.334 200.333 229.39V229.39Z" fill="black"/>
<path d="M205.015 229.39C204.774 228.849 204.699 228.25 204.799 227.667C204.886 227.08 205.084 226.516 205.382 226.004C205.683 225.503 206.064 225.054 206.509 224.676C206.731 224.493 206.965 224.325 207.208 224.173C207.46 224.034 207.722 223.914 207.991 223.813C207.836 224.049 207.668 224.276 207.489 224.494L207.001 225.142C206.688 225.561 206.397 225.995 206.13 226.444C205.584 227.351 205.207 228.349 205.015 229.39V229.39Z" fill="black"/>
<path d="M213.174 245.741C211.551 245.211 209.985 244.518 208.501 243.673C205.969 242.222 201.547 239.728 200.299 239.242C196.362 237.695 191.69 236.097 190.007 233.508C187.138 229.095 190.006 226.815 190.006 226.815C190.914 231.671 196.588 234.394 204.703 237.522C212.819 240.649 213.824 242.126 219.373 243.933C222.321 244.898 229.006 244.324 232.153 239.711C232.378 239.383 232.569 239.034 232.726 238.668L233.302 234.135C237.561 251.061 219.417 247.765 213.174 245.741Z" fill="black"/>
<path d="M238.705 232.742C237.838 232.459 237.083 231.909 236.544 231.171C236.006 230.434 235.713 229.545 235.707 228.631C235.629 227.322 235.971 226.021 236.682 224.92C237.393 223.819 238.437 222.974 239.662 222.509C244.056 220.655 246.137 215.27 246.92 212.605C247.575 210.339 248.589 208.193 249.923 206.249C252.111 203.089 255.544 199.929 259.733 202.186C261.185 203.016 262.287 204.345 262.834 205.927C263.883 208.747 265.564 211.531 261.013 217.734C260.274 218.726 259.477 219.672 258.624 220.567C257.305 221.994 256.272 223.662 255.58 225.48C254.948 227.252 248.758 235.946 238.705 232.742Z" fill="black"/>
<path d="M239.536 207.513C239.975 209.762 239.971 212.075 239.526 214.322C239.107 216.585 238.327 218.766 237.218 220.781C236.664 221.773 236.055 222.733 235.394 223.657C235.101 224.106 234.869 224.593 234.704 225.103C234.56 225.623 234.5 226.162 234.528 226.701C234.526 227.81 234.724 228.91 235.112 229.949C235.282 230.48 235.588 230.956 235.998 231.332C236.408 231.708 236.909 231.97 237.452 232.093C236.878 232.046 236.333 231.818 235.895 231.442C235.464 231.055 235.116 230.584 234.871 230.058C234.388 229.007 234.11 227.874 234.052 226.719C234.001 226.129 234.034 225.535 234.152 224.955C234.288 224.376 234.504 223.819 234.795 223.3C235.389 222.286 235.977 221.394 236.477 220.387C237.507 218.419 238.287 216.33 238.802 214.168C239.343 211.993 239.589 209.754 239.536 207.513V207.513Z" fill="black"/>
<path d="M253.725 198.505C254.137 198.532 254.542 198.632 254.919 198.801C255.292 198.959 255.644 199.161 255.968 199.403C256.298 199.65 256.59 199.943 256.835 200.275C257.1 200.61 257.263 201.015 257.305 201.441C256.964 201.181 256.659 200.974 256.355 200.753L255.446 200.097C254.81 199.638 254.232 199.104 253.725 198.505V198.505Z" fill="black"/>
<path d="M242.53 141.674C242.531 141.687 242.53 141.701 242.526 141.714C242.522 141.726 242.516 141.738 242.508 141.749C242.499 141.759 242.489 141.768 242.477 141.774C242.465 141.781 242.452 141.785 242.439 141.786L214.559 145.706L187.315 149.416L187.496 179.446L187.58 194.783L187.622 210.12C187.623 210.374 187.533 210.621 187.367 210.814C187.202 211.006 186.972 211.133 186.721 211.17H186.714L149.683 216.602L112.63 221.901H112.623C112.422 221.93 112.217 221.896 112.037 221.803L86.5597 209.07L61.1177 196.267H61.1108C60.9919 196.207 60.8923 196.115 60.8231 196.001C60.7539 195.887 60.718 195.756 60.7195 195.623L61.1108 163.787C61.2575 153.168 61.2714 142.556 61.3622 131.944C61.3629 131.864 61.3932 131.786 61.4474 131.727C61.5015 131.667 61.5757 131.63 61.6557 131.622L82.3822 129.424L83.2415 129.333L83.4301 129.312C83.3184 129.578 83.2065 129.844 83.1018 130.117L82.4939 130.18L62.0119 132.238C62.0189 142.759 61.949 153.273 62.0119 163.787L62.1516 195.182L87.3632 207.446L112.644 219.836L149.368 214.411L185.505 209.203L185.547 194.783L185.638 179.446L185.827 148.772V148.765C185.827 148.586 185.892 148.413 186.011 148.279C186.129 148.145 186.292 148.059 186.469 148.037L214.433 144.754L242.418 141.583C242.431 141.582 242.445 141.583 242.458 141.587C242.47 141.591 242.482 141.597 242.493 141.605C242.503 141.614 242.512 141.624 242.518 141.636C242.524 141.648 242.528 141.661 242.53 141.674V141.674Z" fill="black"/>
<path d="M84.2053 129.228C84.303 129.48 84.4079 129.732 84.5056 129.977C84.1284 130.012 83.7513 130.054 83.374 130.089C83.5207 129.816 83.6674 129.543 83.8071 129.27L84.2053 129.228Z" fill="black"/>
<path d="M84.7363 129.172C85.358 129.109 85.9798 129.046 86.6014 128.976C86.4897 129.249 86.3779 129.529 86.2661 129.802C85.8749 129.837 85.4838 129.879 85.0926 129.921C84.9739 129.669 84.855 129.424 84.7363 129.172Z" fill="black"/>
<path d="M87.2443 129.242L87.4258 129.683C87.3001 129.697 87.1744 129.711 87.0557 129.725C87.1184 129.564 87.1813 129.403 87.2443 129.242Z" fill="black"/>
<path d="M89.6403 128.647H89.71L89.3957 129.494C88.9626 129.536 88.5294 129.578 88.1034 129.62L87.8169 128.843C88.4248 128.78 89.0324 128.71 89.6403 128.647Z" fill="black"/>
<path d="M90.0872 128.997L90.2339 129.41C90.1362 129.424 90.0314 129.431 89.9336 129.438L90.0872 128.997Z" fill="black"/>
<path d="M92.7278 128.528L92.4415 129.2L90.6811 129.368L90.4365 128.633C91.198 128.612 91.9663 128.577 92.7278 128.528Z" fill="black"/>
<path d="M92.9375 128.598L93.1541 129.13C93.0074 129.144 92.8607 129.158 92.7139 129.172L92.9375 128.598Z" fill="black"/>
<path d="M269.802 122.137C269.796 122.163 269.78 122.185 269.758 122.199C269.736 122.214 269.709 122.219 269.683 122.214L251.981 118.469C246.113 117.223 240.252 115.961 234.398 114.682L212.903 117.097L191.324 119.414L169.738 121.724L148.146 123.915C140.943 124.65 133.741 125.322 126.539 126.001L104.925 128.024C101.6 128.332 98.2768 128.645 94.9563 128.962C94.4184 129.011 93.8806 129.06 93.3427 129.116L93.1191 128.5C93.7618 128.451 94.4046 128.395 95.0542 128.311C94.67 128.262 94.2787 128.22 93.8944 128.178C94.2997 128.136 94.6979 128.087 95.096 128.045C98.3374 127.681 101.577 127.315 104.813 126.946L126.385 124.517C133.573 123.698 140.762 122.886 147.957 122.144L169.55 119.869L191.15 117.72L212.75 115.578L234.356 113.541H234.37C234.427 113.538 234.483 113.543 234.538 113.555C240.413 114.927 246.281 116.325 252.142 117.748L269.725 122.011C269.738 122.014 269.751 122.019 269.763 122.027C269.774 122.035 269.783 122.046 269.791 122.057C269.798 122.069 269.803 122.082 269.804 122.096C269.806 122.11 269.805 122.124 269.802 122.137V122.137Z" fill="black"/>
<path d="M122.997 189.505V214.047L177.933 206.956V183.184L122.997 189.505ZM154.209 199.991C150.157 199.991 150.164 193.691 154.209 193.691C158.261 193.691 158.254 199.991 154.209 199.991V199.991Z" fill="black"/>
<path d="M122.997 160.56V185.102L177.933 178.011V154.239L122.997 160.56ZM154.209 171.046C150.157 171.046 150.164 164.746 154.209 164.746C158.261 164.746 158.254 171.046 154.209 171.046V171.046Z" fill="black"/>
<path d="M244.569 123.578L244.578 123.578C245.731 123.282 246.892 123.04 248.05 122.77C249.21 122.518 250.371 122.272 251.536 122.042C251.597 122.03 251.661 122.037 251.719 122.062L251.735 122.07C254.175 123.147 256.592 124.273 258.999 125.421C261.403 126.576 263.796 127.753 266.166 128.978L266.186 128.988C266.256 129.024 266.309 129.087 266.333 129.163C266.357 129.238 266.35 129.321 266.314 129.391C266.291 129.436 266.257 129.474 266.215 129.502C266.174 129.53 266.126 129.547 266.076 129.552C265.081 129.642 264.087 129.745 263.09 129.815C262.093 129.888 261.098 129.976 260.097 130.025C261.077 129.816 262.061 129.646 263.044 129.461C264.026 129.274 265.013 129.119 265.998 128.951L265.907 129.525C263.462 128.457 261.041 127.34 258.63 126.201C256.222 125.055 253.824 123.888 251.449 122.672L251.648 122.699C250.474 122.872 249.298 123.028 248.12 123.179C246.939 123.312 245.763 123.472 244.578 123.579H244.578L244.569 123.578Z" fill="black"/>
<path d="M239.514 132.718L239.506 132.718L233.682 133.654C231.742 133.971 229.794 134.236 227.851 134.529C225.906 134.809 223.964 135.115 222.016 135.375L216.174 136.17C216.112 136.177 216.049 136.171 215.989 136.151C213.641 135.341 211.284 134.559 208.947 133.717L201.925 131.228C201.878 131.212 201.834 131.186 201.797 131.153C201.759 131.12 201.729 131.079 201.707 131.034C201.685 130.989 201.673 130.94 201.67 130.89C201.667 130.84 201.674 130.79 201.69 130.742C201.713 130.678 201.752 130.621 201.804 130.577C201.856 130.533 201.919 130.503 201.986 130.491C205.13 129.953 208.289 129.496 211.441 129.001C214.593 128.51 217.754 128.065 220.917 127.636C217.791 128.284 214.662 128.916 211.526 129.502C208.389 130.085 205.259 130.704 202.114 131.244L202.175 130.507L209.224 132.918C211.578 133.71 213.912 134.561 216.255 135.385L216.07 135.366L221.92 134.634C223.869 134.385 225.824 134.182 227.776 133.954C229.73 133.739 231.68 133.495 233.637 133.303C235.592 133.104 237.546 132.891 239.505 132.718H239.506L239.514 132.718Z" fill="black"/>
<path d="M216.824 120.296C214.722 120.908 212.608 121.466 210.499 122.047C209.971 122.188 209.447 122.346 208.914 122.466L207.311 122.802L204.109 123.495L202.508 123.842C201.927 124 201.319 124.037 200.723 123.95C200.091 123.852 199.503 123.566 199.036 123.128C198.8 122.889 198.618 122.602 198.504 122.286C198.39 121.97 198.345 121.633 198.374 121.298C198.507 120.094 199.054 118.975 199.922 118.133C200.338 117.718 200.809 117.362 201.321 117.076C201.573 116.935 201.833 116.809 202.099 116.698C202.343 116.594 202.583 116.482 202.821 116.364C204.738 115.474 206.353 114.039 207.465 112.238C207.987 111.335 208.333 110.341 208.485 109.308C208.621 108.294 208.623 107.168 208.678 106.082L209.212 92.9633L209.222 93.0737C209.169 92.929 209.095 92.7929 209.003 92.6697C208.896 92.5229 208.775 92.3876 208.64 92.266C208.345 92.0227 208.027 91.8079 207.691 91.6245C206.973 91.245 206.205 90.97 205.409 90.8078C204.588 90.648 203.757 90.5472 202.922 90.5063C202.08 90.4593 201.235 90.4646 200.385 90.4788C201.225 90.3634 202.068 90.2363 202.922 90.1978C203.78 90.149 204.641 90.1619 205.498 90.2366C206.38 90.3217 207.245 90.5333 208.067 90.865C208.496 91.046 208.89 91.3024 209.229 91.6221C209.617 91.9609 209.907 92.3981 210.069 92.8879C210.077 92.9149 210.081 92.9431 210.08 92.9713L210.078 92.9987L209.544 106.118C209.487 107.216 209.494 108.284 209.342 109.44C209.174 110.58 208.792 111.677 208.216 112.673C207.019 114.623 205.276 116.177 203.205 117.142C202.954 117.268 202.699 117.386 202.44 117.497C202.202 117.596 201.97 117.708 201.745 117.834C201.302 118.081 200.896 118.388 200.536 118.746C199.82 119.44 199.363 120.358 199.239 121.348C199.217 121.56 199.242 121.774 199.312 121.975C199.382 122.176 199.496 122.358 199.646 122.51C199.985 122.821 200.41 123.023 200.864 123.093C201.353 123.162 201.85 123.128 202.325 122.993L203.926 122.646L207.128 121.952L208.726 121.595C209.26 121.483 209.803 121.411 210.342 121.319C212.502 120.976 214.657 120.609 216.824 120.296Z" fill="black"/>
<path d="M203.563 81.103C204.492 82.16 205.352 83.28 206.49 84.3651L194.314 99.478C194.105 85.0931 184.122 84.3651 184.122 84.3651L200.532 78.1071C201.101 78.5609 201.645 79.047 202.159 79.563C202.648 80.06 203.102 80.578 203.563 81.103Z" fill="black"/>
<path d="M211.695 84.3651H206.49C206.417 83.5896 206.207 82.8334 205.868 82.1321C205.544 81.4281 205.123 80.773 204.618 80.1859C204.107 79.5857 203.497 79.0768 202.816 78.681C202.125 78.2746 201.332 78.0754 200.531 78.1071L202.851 73.7249L211.695 84.3651Z" fill="black"/>
<path d="M194.316 99.4797C192.761 98.9994 191.311 98.2291 190.042 97.2093C188.743 96.2026 187.61 94.997 186.686 93.6368C186.446 93.3022 186.229 92.9515 186.036 92.5873C185.843 92.2237 185.618 91.8767 185.453 91.4997C185.108 90.7532 184.826 89.9794 184.609 89.1863C184.159 87.6207 183.993 85.9868 184.12 84.3625C184.533 85.8801 185.04 87.3704 185.638 88.8246C186.225 90.2403 186.962 91.5884 187.838 92.8457C188.696 94.1196 189.675 95.3075 190.76 96.3932C191.869 97.5072 193.058 98.5387 194.316 99.4797V99.4797Z" fill="black"/>
<path d="M190.05 94.6317C195.071 94.6317 195.08 86.8125 190.05 86.8125C185.029 86.8125 185.021 94.6317 190.05 94.6317Z" fill="black"/>
<path d="M153.61 126.54L166.447 124.312C170.819 123.566 175.247 122.801 179.665 122.228L179.679 122.226C179.744 122.218 179.811 122.23 179.869 122.261L185.005 125.036C186.712 125.97 188.437 126.871 190.16 127.774C191.877 128.69 193.62 129.553 195.353 130.437C197.085 131.324 198.838 132.168 200.58 133.036C200.624 133.058 200.66 133.093 200.683 133.137C200.706 133.18 200.715 133.23 200.708 133.279C200.701 133.328 200.679 133.373 200.645 133.409C200.611 133.445 200.567 133.469 200.518 133.478L200.509 133.479C196.127 134.273 191.742 135.048 187.35 135.777C182.96 136.518 178.57 137.263 174.169 137.937L174.164 137.938C174.068 137.953 173.97 137.936 173.884 137.889C170.415 136.024 166.98 134.075 163.58 132.163C160.204 130.234 156.882 128.347 153.61 126.54ZM153.695 126.555C157.238 128.395 160.73 130.156 164.169 131.874C167.584 133.609 170.964 135.308 174.31 137.089L174.025 137.042C178.416 136.302 182.818 135.632 187.219 134.959C191.618 134.273 196.025 133.633 200.435 133.013L200.364 133.456C198.646 132.543 196.94 131.607 195.212 130.712C193.486 129.816 191.77 128.897 190.028 128.032C188.291 127.155 186.556 126.274 184.804 125.427L179.562 122.859L179.766 122.893C175.495 123.649 171.236 124.212 166.921 124.796L160.379 125.653L153.695 126.555Z" fill="black"/>
<path d="M168.947 129.285C169.889 129.075 170.841 128.913 171.8 128.8C172.708 128.944 173.62 129.06 174.53 129.192L179.992 129.959L185.454 130.726L188.185 131.11C189.059 131.499 189.934 131.881 190.796 132.354C189.837 132.571 188.892 132.697 187.945 132.83L185.214 132.447L179.751 131.68L174.289 130.912C173.378 130.788 172.469 130.648 171.557 130.537C170.666 130.164 169.795 129.746 168.947 129.285V129.285Z" fill="black"/>
<path d="M97.9812 131.399L110.818 129.17C115.191 128.425 119.619 127.659 124.036 127.086L124.05 127.084C124.116 127.076 124.182 127.088 124.24 127.12L129.376 129.894C131.084 130.829 132.808 131.729 134.531 132.632C136.248 133.548 137.992 134.411 139.725 135.295C141.457 136.182 143.21 137.026 144.951 137.894C144.995 137.916 145.031 137.951 145.054 137.995C145.077 138.039 145.086 138.088 145.079 138.137C145.072 138.186 145.051 138.231 145.016 138.267C144.982 138.303 144.938 138.327 144.89 138.336L144.881 138.338C140.499 139.132 136.114 139.906 131.722 140.635C127.331 141.376 122.941 142.121 118.54 142.795L118.536 142.796C118.44 142.811 118.341 142.794 118.255 142.747C114.787 140.882 111.351 138.933 107.952 137.021C104.576 135.092 101.253 133.206 97.9812 131.399ZM98.0668 131.413C101.61 133.253 105.102 135.014 108.541 136.732C111.956 138.467 115.335 140.166 118.682 141.948L118.397 141.9C122.787 141.16 127.189 140.49 131.59 139.817C135.99 139.131 140.396 138.491 144.806 137.871L144.736 138.314C143.018 137.401 141.312 136.465 139.584 135.57C137.857 134.674 136.142 133.756 134.399 132.89C132.663 132.013 130.928 131.132 129.176 130.285L123.934 127.717L124.137 127.751C119.867 128.507 115.608 129.071 111.292 129.654L104.751 130.511L98.0668 131.413Z" fill="black"/>
<path d="M129.733 130.286C131.307 129.964 132.884 129.66 134.463 129.374C136.044 129.099 137.621 128.796 139.205 128.543C142.373 128.029 145.535 127.482 148.717 127.066L148.734 127.064C148.803 127.054 148.873 127.067 148.934 127.101L154.054 129.908C155.759 130.846 157.484 131.745 159.211 132.641C160.947 133.52 162.683 134.399 164.436 135.243L169.685 137.798C169.75 137.83 169.803 137.881 169.837 137.945C169.87 138.008 169.883 138.081 169.873 138.153C169.864 138.224 169.831 138.29 169.782 138.342C169.732 138.394 169.667 138.429 169.596 138.442L169.582 138.444L163.001 139.586C160.807 139.962 158.613 140.334 156.414 140.683C154.214 141.026 152.015 141.371 149.81 141.68C147.606 141.994 145.404 142.325 143.195 142.608L143.18 142.61C143.127 142.617 143.074 142.606 143.028 142.58C141.151 141.516 139.285 140.434 137.428 139.333C137.418 139.328 137.411 139.318 137.408 139.308C137.405 139.297 137.406 139.285 137.411 139.275C137.417 139.266 137.426 139.258 137.436 139.255C137.447 139.251 137.458 139.252 137.468 139.257C139.416 140.186 141.353 141.137 143.278 142.109L143.111 142.081C145.297 141.658 147.492 141.282 149.683 140.889C151.874 140.492 154.071 140.129 156.267 139.766C158.464 139.408 160.665 139.074 162.867 138.744L169.474 137.765L169.371 138.411L164.241 135.623C162.536 134.686 160.812 133.784 159.088 132.882C157.355 131.997 155.621 131.115 153.867 130.272L148.609 127.736L148.825 127.771C145.664 128.325 142.482 128.748 139.306 129.205C137.719 129.437 136.123 129.619 134.532 129.828C132.94 130.03 131.345 130.211 129.747 130.372C129.735 130.373 129.724 130.37 129.716 130.363C129.707 130.356 129.701 130.346 129.699 130.335C129.698 130.324 129.7 130.313 129.707 130.304C129.713 130.295 129.722 130.288 129.733 130.286L129.733 130.286Z" fill="black"/>
<path d="M236.885 88.2499C236.522 89.2791 236.11 90.287 235.698 91.295L234.056 94.067L230.905 99.4011H229.69L229.879 99.086L233.155 93.535L234.796 90.756C235.481 89.916 236.159 89.0691 236.885 88.2499Z" fill="black"/>
<path d="M229.215 91.7359L228.824 95.166L228.342 99.401H227.287L227.783 95.0469L228.167 91.6169C228.453 90.49 228.733 89.363 229.082 88.2499C229.166 89.4191 229.194 90.574 229.215 91.7359Z" fill="black"/>
<path d="M224.891 99.4011H225.554L225.184 96.804L224.884 94.718L224.423 91.442C224.108 90.378 223.801 89.307 223.431 88.25C223.382 89.167 223.368 90.077 223.375 90.987V91.596L223.507 92.499L223.85 94.865L224.499 99.4011H224.891Z" fill="black"/>
<path d="M222.676 99.4011H221.621L220.965 94.8651L220.497 91.596C220.49 90.4831 220.49 89.37 220.553 88.25C220.923 89.3071 221.23 90.378 221.545 91.442L222.006 94.7181L222.453 97.8401L222.676 99.4011Z" fill="black"/>
<path d="M223.508 91.8831V92.499L223.501 95.103V99.4011H222.453V91.8831C222.606 90.8121 222.76 89.7411 222.977 88.663C223.13 89.4401 223.263 90.217 223.375 90.9871C223.424 91.288 223.466 91.5821 223.508 91.8831Z" fill="black"/>
<path d="M226.735 92.4219L226.372 95.621L225.945 99.4011H224.891L225.184 96.8041L225.331 95.502L225.687 92.303C225.959 91.253 226.232 90.203 226.567 89.167C226.665 90.252 226.7 91.3371 226.735 92.4219Z" fill="black"/>
<path d="M219.442 103.685V107.465C219.623 107.444 219.805 107.43 219.987 107.409L221.558 103.874C220.853 103.825 220.147 103.769 219.442 103.685ZM221.754 103.937L220.07 107.402C221.083 107.297 222.103 107.227 223.116 107.185L221.754 103.937ZM221.978 103.902L223.417 107.01L224.562 104.007C223.703 103.993 222.837 103.951 221.978 103.902L221.978 103.902ZM224.925 104.308L223.745 107.164C224.492 107.136 225.233 107.122 225.98 107.115L224.925 104.308ZM226.413 104.035C226.05 104.028 225.68 104.021 225.317 104.021L226.386 106.66L227.294 104.021C227 104.028 226.707 104.028 226.413 104.035L226.413 104.035ZM227.762 104.7L226.847 107.115C227.433 107.122 228.02 107.129 228.607 107.15C228.314 106.331 228.034 105.519 227.762 104.7V104.7ZM228.251 104.007C228.551 104.84 228.838 105.673 229.117 106.506C229.494 105.645 229.864 104.791 230.249 103.937C229.585 103.972 228.921 103.993 228.251 104.007L228.251 104.007ZM230.64 104.329C230.291 105.281 229.927 106.226 229.564 107.178C230.367 107.206 231.171 107.255 231.967 107.325C231.506 106.331 231.073 105.337 230.64 104.329L230.64 104.329ZM219.442 99.4012V103.685C221.757 103.432 224.085 103.315 226.413 103.335C226.84 103.335 227.266 103.342 227.692 103.349C227.754 103.332 227.819 103.332 227.881 103.349C228.775 103.363 229.662 103.398 230.549 103.447C230.572 103.439 230.595 103.435 230.619 103.433C230.655 103.433 230.69 103.441 230.724 103.454C231.611 103.51 232.498 103.58 233.385 103.685V99.4012L219.442 99.4012ZM221.069 102.53C220.798 102.521 220.54 102.407 220.351 102.211C220.161 102.015 220.056 101.753 220.056 101.48C220.056 101.208 220.161 100.946 220.351 100.75C220.54 100.554 220.798 100.439 221.069 100.43C221.341 100.44 221.598 100.555 221.787 100.75C221.976 100.946 222.081 101.208 222.081 101.48C222.081 101.752 221.976 102.014 221.787 102.21C221.598 102.406 221.341 102.521 221.069 102.53L221.069 102.53ZM224.842 102.53C224.57 102.521 224.312 102.407 224.123 102.211C223.934 102.015 223.828 101.753 223.828 101.48C223.828 101.208 223.934 100.946 224.123 100.75C224.312 100.554 224.57 100.439 224.842 100.43C225.113 100.44 225.37 100.555 225.559 100.75C225.748 100.946 225.853 101.208 225.853 101.48C225.853 101.752 225.748 102.014 225.559 102.21C225.37 102.406 225.113 102.521 224.842 102.53L224.842 102.53ZM228.488 102.404C228.216 102.395 227.959 102.281 227.77 102.085C227.58 101.889 227.475 101.627 227.475 101.354C227.475 101.082 227.58 100.82 227.77 100.624C227.959 100.428 228.216 100.313 228.488 100.304C228.76 100.314 229.017 100.429 229.206 100.624C229.395 100.82 229.5 101.082 229.5 101.354C229.5 101.626 229.395 101.888 229.206 102.084C229.017 102.28 228.76 102.395 228.488 102.404L228.488 102.404ZM232.072 102.53C231.8 102.521 231.542 102.407 231.353 102.211C231.164 102.015 231.058 101.753 231.058 101.48C231.058 101.208 231.164 100.946 231.353 100.75C231.542 100.554 231.8 100.439 232.072 100.43C232.343 100.44 232.601 100.555 232.789 100.75C232.978 100.946 233.084 101.208 233.084 101.48C233.084 101.752 232.978 102.014 232.789 102.21C232.601 102.406 232.343 102.521 232.072 102.53L232.072 102.53ZM230.947 103.895C231.338 105.036 231.716 106.177 232.065 107.332C232.505 107.374 232.945 107.409 233.385 107.465V103.685C232.575 103.776 231.765 103.846 230.947 103.895L230.947 103.895ZM221.754 103.937L220.071 107.402C221.083 107.297 222.103 107.227 223.116 107.185L221.754 103.937ZM221.978 103.902L223.417 107.01L224.562 104.007C223.703 103.993 222.837 103.951 221.978 103.902L221.978 103.902ZM224.926 104.308L223.745 107.164C224.492 107.136 225.233 107.122 225.98 107.115L224.926 104.308ZM226.413 104.035C226.05 104.028 225.68 104.021 225.317 104.021L226.386 106.66L227.294 104.021C227 104.028 226.707 104.028 226.413 104.035L226.413 104.035ZM227.762 104.7L226.847 107.115C227.434 107.122 228.02 107.129 228.607 107.15C228.314 106.331 228.034 105.519 227.762 104.7L227.762 104.7ZM228.251 104.007C228.551 104.84 228.838 105.673 229.117 106.506C229.494 105.645 229.865 104.791 230.249 103.937C229.585 103.972 228.921 103.993 228.251 104.007L228.251 104.007ZM230.64 104.329C230.291 105.281 229.927 106.226 229.564 107.178C230.368 107.206 231.171 107.255 231.967 107.325C231.506 106.331 231.073 105.337 230.64 104.329L230.64 104.329ZM221.754 103.937L220.071 107.402C221.083 107.297 222.103 107.227 223.116 107.185L221.754 103.937ZM221.978 103.902L223.417 107.01L224.562 104.007C223.703 103.993 222.837 103.951 221.978 103.902L221.978 103.902ZM224.926 104.308L223.745 107.164C224.492 107.136 225.233 107.122 225.98 107.115L224.926 104.308ZM226.414 104.035C226.05 104.028 225.68 104.021 225.317 104.021L226.386 106.66L227.294 104.021C227 104.028 226.707 104.028 226.413 104.035L226.414 104.035ZM227.762 104.7L226.847 107.115C227.434 107.122 228.02 107.129 228.607 107.15C228.314 106.331 228.034 105.519 227.762 104.7L227.762 104.7ZM228.251 104.007C228.551 104.84 228.838 105.673 229.117 106.506C229.494 105.645 229.865 104.791 230.249 103.937C229.585 103.972 228.921 103.993 228.251 104.007L228.251 104.007ZM230.64 104.329C230.291 105.281 229.928 106.226 229.564 107.178C230.368 107.206 231.171 107.255 231.967 107.325C231.506 106.331 231.073 105.337 230.64 104.329L230.64 104.329ZM219.442 111.56V112.428C219.442 114.281 220.176 116.058 221.484 117.368C222.791 118.678 224.565 119.414 226.414 119.414C228.263 119.414 230.036 118.678 231.343 117.368C232.651 116.058 233.385 114.281 233.385 112.428V111.56C228.749 112.027 224.078 112.027 219.442 111.56ZM229.264 107.759C229.219 107.789 229.168 107.808 229.114 107.814C229.061 107.82 229.007 107.814 228.956 107.794C228.942 107.786 228.928 107.777 228.914 107.766C228.083 107.794 227.245 107.808 226.414 107.815C224.085 107.828 221.757 107.711 219.442 107.465V111.56C224.078 111.094 228.749 111.094 233.385 111.56V107.465C232.009 107.626 230.64 107.71 229.264 107.759L229.264 107.759ZM221.384 110.594C221.112 110.585 220.854 110.471 220.665 110.275C220.476 110.079 220.37 109.817 220.37 109.544C220.37 109.272 220.476 109.01 220.665 108.814C220.854 108.618 221.112 108.503 221.384 108.494C221.655 108.505 221.912 108.62 222.1 108.815C222.288 109.011 222.393 109.272 222.393 109.544C222.393 109.816 222.288 110.077 222.1 110.273C221.911 110.469 221.655 110.584 221.384 110.594L221.384 110.594ZM224.59 110.531C224.318 110.522 224.061 110.408 223.871 110.212C223.682 110.016 223.577 109.754 223.577 109.481C223.577 109.209 223.682 108.947 223.871 108.751C224.061 108.555 224.318 108.44 224.59 108.431C224.861 108.442 225.118 108.557 225.306 108.752C225.494 108.948 225.6 109.209 225.599 109.481C225.599 109.753 225.494 110.014 225.306 110.21C225.118 110.406 224.861 110.521 224.59 110.531L224.59 110.531ZM228.111 110.531C227.839 110.522 227.581 110.408 227.392 110.212C227.203 110.016 227.097 109.754 227.097 109.481C227.097 109.209 227.203 108.947 227.392 108.751C227.581 108.555 227.839 108.44 228.111 108.431C228.382 108.442 228.639 108.557 228.827 108.752C229.015 108.948 229.12 109.209 229.12 109.481C229.12 109.753 229.015 110.014 228.827 110.21C228.639 110.406 228.382 110.521 228.111 110.531L228.111 110.531ZM231.632 110.405C231.36 110.396 231.102 110.282 230.913 110.086C230.724 109.89 230.618 109.628 230.618 109.355C230.618 109.083 230.724 108.821 230.913 108.625C231.102 108.429 231.36 108.314 231.632 108.305C231.903 108.316 232.16 108.431 232.348 108.626C232.536 108.822 232.641 109.083 232.641 109.355C232.641 109.627 232.536 109.888 232.348 110.084C232.16 110.28 231.903 110.395 231.632 110.405L231.632 110.405ZM231.967 107.325C231.506 106.331 231.073 105.337 230.64 104.329C230.291 105.281 229.927 106.226 229.564 107.178C230.367 107.206 231.171 107.255 231.967 107.325L231.967 107.325ZM230.249 103.937C229.585 103.972 228.921 103.993 228.251 104.007C228.551 104.84 228.838 105.673 229.117 106.506C229.494 105.645 229.864 104.791 230.249 103.937L230.249 103.937ZM228.607 107.15C228.314 106.331 228.034 105.519 227.762 104.7L226.847 107.115C227.433 107.122 228.02 107.129 228.607 107.15L228.607 107.15ZM227.294 104.021C227 104.028 226.707 104.028 226.413 104.035C226.05 104.028 225.68 104.021 225.317 104.021L226.386 106.66L227.294 104.021ZM225.98 107.115L224.926 104.308L223.745 107.164C224.492 107.136 225.233 107.122 225.98 107.115L225.98 107.115ZM224.562 104.007C223.703 103.993 222.837 103.951 221.978 103.902L223.417 107.01L224.562 104.007ZM221.754 103.937L220.071 107.402C221.083 107.297 222.103 107.227 223.116 107.185L221.754 103.937ZM230.64 104.329C230.291 105.281 229.928 106.226 229.564 107.178C230.368 107.206 231.171 107.255 231.967 107.325C231.506 106.331 231.073 105.337 230.64 104.329L230.64 104.329ZM228.251 104.007C228.551 104.84 228.838 105.673 229.117 106.506C229.494 105.645 229.865 104.791 230.249 103.937C229.585 103.972 228.921 103.993 228.251 104.007L228.251 104.007ZM227.762 104.7L226.847 107.115C227.434 107.122 228.02 107.129 228.607 107.15C228.314 106.331 228.034 105.519 227.762 104.7L227.762 104.7ZM226.413 104.035C226.05 104.028 225.68 104.021 225.317 104.021L226.386 106.66L227.294 104.021C227 104.028 226.707 104.028 226.413 104.035L226.413 104.035ZM224.926 104.308L223.745 107.164C224.492 107.136 225.233 107.122 225.98 107.115L224.926 104.308ZM221.978 103.902L223.417 107.01L224.562 104.007C223.703 103.993 222.837 103.951 221.978 103.902L221.978 103.902ZM221.754 103.937L220.071 107.402C221.083 107.297 222.103 107.227 223.116 107.185L221.754 103.937ZM230.64 104.329C230.291 105.281 229.927 106.226 229.564 107.178C230.368 107.206 231.171 107.255 231.967 107.325C231.506 106.331 231.073 105.337 230.64 104.329L230.64 104.329ZM228.251 104.007C228.551 104.84 228.838 105.673 229.117 106.506C229.494 105.645 229.865 104.791 230.249 103.937C229.585 103.972 228.921 103.993 228.251 104.007L228.251 104.007ZM227.762 104.7L226.847 107.115C227.434 107.122 228.02 107.129 228.607 107.15C228.314 106.331 228.034 105.519 227.762 104.7L227.762 104.7ZM226.413 104.035C226.05 104.028 225.68 104.021 225.317 104.021L226.386 106.66L227.294 104.021C227 104.028 226.707 104.028 226.413 104.035L226.413 104.035ZM224.926 104.308L223.745 107.164C224.492 107.136 225.233 107.122 225.98 107.115L224.926 104.308ZM221.978 103.902L223.417 107.01L224.562 104.007C223.703 103.993 222.837 103.951 221.978 103.902L221.978 103.902ZM221.754 103.937L220.07 107.402C221.083 107.297 222.103 107.227 223.116 107.185L221.754 103.937Z" fill="black"/>
<path d="M105.965 218.778C106.095 220.506 106.161 222.234 106.252 223.963C106.347 225.692 106.39 227.42 106.453 229.149C106.492 230.877 106.555 232.606 106.574 234.334C106.596 236.063 106.641 237.791 106.641 239.52L106.144 238.867L111.005 240.181L110.657 240.176L115.502 239.025L114.991 239.676C115.033 236.468 115.091 233.26 115.193 230.052C115.254 228.448 115.299 226.844 115.389 225.24C115.473 223.636 115.539 222.032 115.659 220.428C115.78 222.032 115.846 223.636 115.929 225.24C116.02 226.844 116.065 228.448 116.126 230.052C116.227 233.26 116.286 236.468 116.328 239.676C116.33 239.825 116.282 239.97 116.191 240.087C116.101 240.205 115.973 240.289 115.829 240.325L115.817 240.328L110.985 241.529C110.871 241.557 110.751 241.556 110.638 241.524L105.787 240.173C105.644 240.133 105.518 240.048 105.429 239.93C105.339 239.812 105.29 239.668 105.289 239.52C105.289 237.791 105.334 236.063 105.356 234.334C105.375 232.606 105.438 230.877 105.478 229.149C105.54 227.42 105.583 225.692 105.678 223.963C105.769 222.234 105.836 220.506 105.965 218.778Z" fill="black"/>
<path d="M110.812 220.347C111.155 223.764 111.234 227.182 111.25 230.6C111.239 234.017 111.163 237.435 110.821 240.853C110.477 237.435 110.397 234.018 110.384 230.6C110.396 227.182 110.473 223.765 110.812 220.347Z" fill="black"/>
<path d="M61.5753 195.692C61.7123 197.42 61.779 199.149 61.8767 200.878C61.9649 202.606 62.0252 204.335 62.0778 206.063C62.1779 209.52 62.2464 212.977 62.2572 216.434L61.7554 215.775C63.377 216.21 64.9989 216.642 66.6132 217.103L66.2695 217.098C67.8851 216.717 69.4968 216.322 71.1181 215.965L70.6272 216.591C70.655 215.204 70.6627 213.817 70.7072 212.43C70.75 211.043 70.7732 209.656 70.8336 208.27C70.8822 206.883 70.9399 205.496 71.021 204.109C71.0951 202.722 71.1602 201.335 71.2697 199.949C71.3791 201.335 71.4442 202.722 71.5184 204.109C71.5995 205.496 71.6571 206.883 71.7057 208.27C71.7661 209.656 71.7893 211.043 71.8321 212.43C71.8766 213.817 71.8843 215.204 71.9122 216.591C71.915 216.731 71.8708 216.868 71.7866 216.98C71.7023 217.093 71.583 217.173 71.4477 217.209L71.4211 217.216C69.8171 217.644 68.2037 218.032 66.5938 218.436C66.4857 218.464 66.3724 218.463 66.2645 218.435L66.25 218.432C64.6269 218.003 63.0114 217.548 61.3953 217.093L61.3893 217.092C61.2464 217.051 61.1205 216.965 61.031 216.847C60.9415 216.728 60.8932 216.583 60.8936 216.434C60.9043 212.977 60.9729 209.52 61.073 206.063C61.1255 204.335 61.1859 202.606 61.2741 200.877C61.3717 199.149 61.4384 197.42 61.5753 195.692Z" fill="black"/>
<path d="M66.4224 197.261C66.7649 200.679 66.8447 204.096 66.8602 207.514C66.8495 210.932 66.7729 214.349 66.4315 217.767C66.0869 214.35 66.0075 210.932 65.9937 207.514C66.0061 204.097 66.083 200.679 66.4224 197.261Z" fill="black"/>
<path d="M177.062 211.375C177.179 212.912 177.245 214.448 177.325 215.985C177.413 217.522 177.462 219.058 177.519 220.595C177.621 223.668 177.682 226.742 177.723 229.815L177.359 229.224L181.743 231.394L181.249 231.345C182.961 230.857 184.686 230.414 186.403 229.946L185.905 230.6C185.906 228.904 185.948 227.208 185.971 225.512C185.99 223.817 186.053 222.121 186.093 220.425C186.154 218.73 186.199 217.034 186.293 215.338C186.385 213.642 186.452 211.946 186.582 210.251C186.713 211.946 186.779 213.642 186.871 215.338C186.965 217.034 187.011 218.73 187.072 220.425C187.112 222.121 187.175 223.817 187.193 225.512C187.217 227.208 187.258 228.904 187.259 230.6C187.259 230.748 187.21 230.893 187.12 231.011C187.03 231.129 186.904 231.214 186.761 231.254C185.045 231.728 183.336 232.228 181.615 232.682L181.604 232.685C181.442 232.728 181.271 232.709 181.122 232.633L176.766 230.406L176.754 230.401C176.647 230.345 176.557 230.262 176.495 230.158C176.433 230.055 176.4 229.936 176.402 229.815C176.442 226.742 176.503 223.668 176.606 220.595C176.663 219.058 176.712 217.522 176.799 215.985C176.88 214.448 176.945 212.912 177.062 211.375Z" fill="black"/>
<path d="M181.822 210.809C182.098 214.349 182.111 217.885 182.06 221.419C181.983 224.953 181.84 228.486 181.432 232.013C181.154 228.473 181.141 224.938 181.194 221.403C181.273 217.87 181.416 214.337 181.822 210.809Z" fill="black"/>
<path d="M233.393 175.568C232.701 175.528 232.021 175.367 231.384 175.09C229.48 174.318 227.778 173.117 226.411 171.58C227.047 171.824 227.664 172.113 228.259 172.444C228.854 172.755 229.424 173.099 229.998 173.434C230.562 173.787 231.131 174.124 231.689 174.488C232.254 174.841 232.802 175.212 233.393 175.568Z" fill="black"/>
<path d="M90.5833 93.36C91.1487 94.2899 91.8242 95.1478 92.5953 95.9151C91.8142 95.9421 91.0387 95.7736 90.3389 95.4249C89.8334 95.1639 89.4066 94.7725 89.1025 94.291C88.8059 93.8028 88.6422 93.2453 88.6275 92.674C88.6132 91.8922 88.7957 91.1194 89.1582 90.427C89.5108 91.4598 89.9894 92.4449 90.5833 93.36Z" fill="black"/>
<path d="M93.1332 93.6681C93.1471 94.4507 92.962 95.224 92.5953 95.9151C92.2428 94.8823 91.7641 93.8971 91.1702 92.9821C90.6031 92.0534 89.9277 91.1957 89.1582 90.427C89.938 90.3991 90.712 90.5702 91.4078 90.924C91.9133 91.1844 92.342 91.573 92.6511 92.0511C92.954 92.5368 93.1205 93.0955 93.1332 93.6681V93.6681Z" fill="black"/>
<path d="M88.718 100.038C89.2836 100.97 89.9617 101.828 90.737 102.593C89.9558 102.621 89.18 102.452 88.4805 102.103C87.9731 101.842 87.544 101.451 87.237 100.969C86.9405 100.481 86.7768 99.9233 86.762 99.352C86.7478 98.5702 86.9304 97.7974 87.2929 97.105C87.6484 98.1366 88.1269 99.1214 88.718 100.038V100.038Z" fill="black"/>
<path d="M91.2678 100.346C91.2814 101.128 91.0989 101.9 90.737 102.593C90.3786 101.563 89.9002 100.578 89.3119 99.66C88.7423 98.7312 88.0646 97.8735 87.293 97.105C88.0728 97.0763 88.847 97.2473 89.5424 97.602C90.0529 97.8576 90.4837 98.2485 90.7879 98.7323C91.0921 99.2161 91.2581 99.7742 91.2679 100.346L91.2678 100.346Z" fill="black"/>
<path d="M86.6154 107.388C87.1827 108.318 87.8606 109.176 88.6342 109.943C87.8521 109.973 87.0754 109.801 86.3778 109.446C85.8693 109.19 85.4397 108.8 85.1345 108.319C84.8379 107.831 84.6741 107.273 84.6593 106.702C84.6443 105.92 84.827 105.147 85.1902 104.455C85.5457 105.487 86.0242 106.471 86.6154 107.388V107.388Z" fill="black"/>
<path d="M89.1654 107.689C89.1797 108.473 88.9971 109.248 88.6343 109.943C88.2766 108.911 87.7958 107.926 87.2024 107.01C86.6353 106.081 85.9599 105.224 85.1904 104.455C85.9702 104.426 86.7444 104.597 87.4398 104.952C87.9455 105.212 88.3742 105.601 88.6833 106.079C88.9852 106.563 89.1517 107.119 89.1654 107.689V107.689Z" fill="black"/>
<path d="M85.5887 115.214C86.1563 116.146 86.8341 117.007 87.6075 117.776C86.8254 117.806 86.0487 117.635 85.3511 117.279C84.8442 117.02 84.4168 116.628 84.1142 116.144C83.8117 115.661 83.6453 115.105 83.6326 114.535C83.6211 113.753 83.8035 112.981 84.1635 112.288C84.5219 113.316 85.0003 114.298 85.5887 115.214V115.214Z" fill="black"/>
<path d="M88.1382 115.522C88.1561 116.306 87.9733 117.082 87.6073 117.776C86.87 115.718 85.6948 113.846 84.1633 112.288C84.9431 112.259 85.7173 112.43 86.4127 112.785C86.9212 113.041 87.3509 113.431 87.6562 113.912C87.9621 114.394 88.1289 114.951 88.1382 115.522V115.522Z" fill="black"/>
<path d="M85.2819 119.997C86.0619 119.971 86.8359 120.141 87.5328 120.493C88.04 120.753 88.4693 121.143 88.7768 121.623C89.0789 122.107 89.2452 122.663 89.2583 123.234C89.2731 124.017 89.089 124.791 88.7234 125.484C87.942 125.514 87.1658 125.344 86.4677 124.991C85.9605 124.732 85.5324 124.34 85.2285 123.858C84.9299 123.372 84.7655 122.815 84.752 122.244C84.7376 121.463 84.9198 120.69 85.2819 119.997V119.997Z" fill="black"/>
<path d="M95.2567 95.4181C94.322 95.8601 93.4208 96.3702 92.5603 96.944C92.68 96.2002 92.9536 95.4897 93.3636 94.858C93.646 94.4308 94.0333 94.0837 94.4884 93.8499C94.9304 93.633 95.4231 93.5411 95.9135 93.584C96.6347 93.6562 97.3437 93.8209 98.0231 94.074L95.2567 95.4181Z" fill="black"/>
<path d="M97.6319 96.398C97.3384 96.9171 96.8973 97.3367 96.3648 97.6035C95.8323 97.8703 95.2325 97.9721 94.642 97.896C93.8706 97.7881 93.1472 97.4573 92.5603 96.9441C93.0872 96.8965 93.6073 96.7909 94.1111 96.6291C94.6106 96.4693 95.0984 96.2751 95.5712 96.048C96.0446 95.8141 96.4959 95.5376 96.9194 95.2219C97.3536 94.9092 97.7275 94.5203 98.0232 94.0739C98.1902 94.8704 98.0505 95.7006 97.6319 96.398Z" fill="black"/>
<path d="M94.167 101.718C93.0142 102.138 91.8407 102.509 90.6602 103.006C90.9988 102.255 91.4778 101.575 92.0713 101.004C92.5057 100.594 93.0192 100.277 93.5801 100.073C94.112 99.8801 94.6789 99.8037 95.2427 99.849C96.0206 99.9272 96.7914 100.065 97.5482 100.262C96.467 100.848 95.3354 101.335 94.167 101.718V101.718Z" fill="black"/>
<path d="M96.7587 102.782C96.3015 103.34 95.7032 103.765 95.0261 104.013C94.349 104.26 93.6181 104.321 92.9096 104.189C92.0587 104.029 91.2752 103.617 90.6602 103.006C91.2971 103.031 91.9347 102.982 92.5603 102.859C93.1851 102.75 93.7997 102.588 94.3974 102.376C95.0032 102.168 95.5842 101.893 96.1299 101.557C96.6873 101.229 97.1704 100.788 97.5482 100.262C97.5971 100.714 97.5522 101.171 97.4164 101.605C97.2805 102.038 97.0566 102.439 96.7587 102.782V102.782Z" fill="black"/>
<path d="M92.8537 107.164C91.7012 107.584 90.5275 107.955 89.3469 108.452C89.6853 107.699 90.167 107.019 90.765 106.45C91.196 106.039 91.7075 105.722 92.2671 105.519C92.7989 105.326 93.3658 105.25 93.9296 105.295C94.7074 105.373 95.4781 105.511 96.2348 105.708C95.1537 106.294 94.0221 106.781 92.8537 107.164V107.164Z" fill="black"/>
<path d="M95.4454 108.228C94.9883 108.786 94.39 109.211 93.713 109.459C93.0359 109.706 92.305 109.767 91.5965 109.635C90.7455 109.475 89.962 109.063 89.3469 108.452C89.9839 108.477 90.6216 108.428 91.2472 108.305C91.872 108.196 92.4866 108.034 93.0843 107.822C93.6901 107.614 94.2711 107.339 94.8168 107.003C95.3742 106.675 95.8572 106.234 96.2349 105.708C96.2839 106.16 96.239 106.617 96.1031 107.051C95.9673 107.484 95.7433 107.885 95.4454 108.228V108.228Z" fill="black"/>
<path d="M91.7497 113.835C90.5832 114.367 89.3607 114.801 88.1382 115.347C88.4801 114.575 88.9608 113.873 89.5563 113.275C89.9856 112.84 90.4897 112.487 91.0443 112.232C91.554 112.006 92.1014 111.878 92.6581 111.854C93.2588 111.798 93.8734 111.917 94.9562 111.77C94.5256 112.252 94.018 112.659 93.4544 112.974C92.9058 113.298 92.3363 113.586 91.7497 113.835V113.835Z" fill="black"/>
<path d="M95.1589 112.533C95.167 112.781 95.1506 113.03 95.1099 113.275C95.0116 113.727 94.8291 114.157 94.572 114.542C94.1213 115.218 93.486 115.75 92.7418 116.075C92.0512 116.381 91.2921 116.5 90.5412 116.418C89.65 116.315 88.8115 115.941 88.1382 115.347C88.8093 115.347 89.4779 115.264 90.1292 115.102C90.7835 114.954 91.4221 114.743 92.0363 114.472C92.6631 114.204 93.2488 113.848 93.7757 113.415C94.3254 112.998 94.7368 112.425 94.9563 111.77C95.0089 111.893 95.0533 112.019 95.0891 112.148C95.1197 112.275 95.143 112.404 95.1589 112.533V112.533Z" fill="black"/>
<path d="M88.1104 123.32C88.1484 122.55 88.3167 121.791 88.6082 121.077C88.7993 120.607 89.0862 120.181 89.4505 119.828C89.7781 119.528 90.1727 119.311 90.6011 119.196C91.2773 119.069 91.9311 118.843 92.5414 118.525C92.6428 118.601 92.7394 118.682 92.8305 118.77C92.9123 118.863 92.9886 118.961 93.059 119.062C93.1775 119.266 93.2698 119.484 93.3339 119.71C93.4373 120.134 93.4458 120.576 93.3589 121.005C93.2188 121.742 92.8432 122.413 92.2886 122.917C91.7887 123.38 91.1602 123.68 90.4864 123.777C89.6658 123.89 88.8309 123.73 88.1104 123.32V123.32Z" fill="black"/>
<path d="M94.8655 89.0551C94.4591 90.1746 94.1825 91.3372 94.0413 92.5201C93.5343 91.8772 93.1978 91.1163 93.0632 90.3081C92.9647 89.6961 93.0151 89.0694 93.2098 88.481C93.4125 87.894 93.7583 87.3671 94.2159 86.9481C94.8207 86.398 95.553 86.0082 96.3464 85.814C95.7319 86.8347 95.2351 87.922 94.8655 89.0551Z" fill="black"/>
<path d="M97.1777 89.853C96.9713 90.4378 96.6232 90.9622 96.1648 91.3791C95.5642 91.9326 94.8337 92.3251 94.0413 92.52C94.6503 91.4965 95.1468 90.4099 95.5221 89.2791C95.9278 88.1593 96.2044 86.9967 96.3464 85.814C96.855 86.4567 97.1938 87.2175 97.3315 88.0261C97.431 88.6385 97.3782 89.266 97.1777 89.853V89.853Z" fill="black"/>
<path d="M85.282 119.997C86.0544 120.765 86.7314 121.624 87.2982 122.555C87.8907 123.469 88.3693 124.453 88.7233 125.484C87.9497 124.717 87.2726 123.858 86.7071 122.927C86.1159 122.011 85.6374 121.028 85.282 119.997V119.997Z" fill="white"/>
<path d="M88.1104 123.32C88.961 122.535 89.8356 121.861 90.6333 121.115C91.0372 120.758 91.4113 120.369 91.7519 119.951C92.106 119.532 92.3743 119.048 92.5414 118.525C92.6391 119.121 92.5209 119.733 92.2082 120.25C91.9212 120.769 91.5486 121.236 91.1061 121.63C90.6772 122.021 90.2066 122.363 89.7027 122.651C89.2047 122.945 88.669 123.17 88.1104 123.32V123.32Z" fill="white"/>
<path d="M84.4148 128.514C84.5267 128.731 84.6314 128.955 84.7363 129.172C84.855 129.424 84.9739 129.669 85.0926 129.921C85.302 130.362 85.5116 130.796 85.7142 131.237C85.8958 130.754 86.0845 130.278 86.2661 129.802C86.3778 129.529 86.4897 129.249 86.6014 128.976C86.6434 128.857 86.6923 128.745 86.7411 128.626C85.9658 128.605 85.1903 128.57 84.4148 128.514ZM87.4257 129.683L87.2442 129.242C87.1813 129.403 87.1184 129.564 87.0556 129.725C86.783 130.418 86.5105 131.111 86.2242 131.797C86.9088 131.769 87.5935 131.748 88.2781 131.741L87.4257 129.683ZM89.6403 128.647C89.3048 128.647 88.9695 128.654 88.6273 128.661C88.3338 128.654 88.0405 128.654 87.7401 128.647L87.8169 128.843L88.1034 129.62L88.7251 131.279L89.3957 129.494L89.71 128.647L89.6403 128.647ZM90.2339 129.41L90.0872 128.997L89.9335 129.438L89.1441 131.748C89.7939 131.755 90.4435 131.769 91.1001 131.797L90.2339 129.41ZM90.4365 128.633L90.6811 129.368L91.4145 131.587L92.4415 129.2L92.7279 128.528C91.9664 128.577 91.1981 128.612 90.4366 128.633H90.4365ZM93.1541 129.13L92.9375 128.598L92.7139 129.172L91.687 131.825C92.5672 131.874 93.4544 131.951 94.3415 132.077L93.1541 129.13ZM84.4147 128.514C84.5266 128.731 84.6313 128.955 84.7362 129.172C84.8549 129.424 84.9738 129.669 85.0925 129.921C85.3019 130.362 85.5115 130.796 85.7142 131.237C85.8958 130.754 86.0844 130.278 86.266 129.802C86.3777 129.529 86.4896 129.249 86.6013 128.976C86.6433 128.857 86.6922 128.745 86.7411 128.626C85.9658 128.605 85.1903 128.57 84.4148 128.514L84.4147 128.514ZM87.4256 129.683L87.2441 129.242C87.1812 129.403 87.1183 129.564 87.0555 129.725C86.783 130.418 86.5104 131.111 86.2241 131.797C86.9087 131.769 87.5934 131.748 88.278 131.741L87.4256 129.683ZM89.6402 128.647C89.3047 128.647 88.9694 128.654 88.6273 128.661C88.3337 128.654 88.0404 128.654 87.7401 128.647L87.8168 128.843L88.1033 129.62L88.725 131.279L89.3956 129.494L89.71 128.647L89.6402 128.647ZM90.2339 129.41L90.0872 128.997L89.9335 129.438L89.144 131.748C89.7938 131.755 90.4434 131.769 91.1 131.797L90.2339 129.41ZM90.4365 128.633L90.681 129.368L91.4144 131.587L92.4414 129.2L92.7278 128.528C91.9664 128.577 91.1981 128.612 90.4366 128.633L90.4365 128.633ZM93.154 129.13L92.9374 128.598L92.7138 129.172L91.6869 131.825C92.5671 131.874 93.4543 131.951 94.3415 132.077L93.154 129.13ZM84.0446 128.822C83.9677 128.969 83.884 129.123 83.807 129.27L84.2053 129.228C84.1494 129.095 84.1007 128.955 84.0447 128.822L84.0446 128.822ZM84.4147 128.514C84.5266 128.731 84.6313 128.955 84.7362 129.172C84.8549 129.424 84.9738 129.669 85.0925 129.921C85.4837 129.879 85.8748 129.837 86.266 129.802C86.3777 129.529 86.4896 129.249 86.6013 128.976C86.6433 128.857 86.6922 128.745 86.741 128.626C85.9658 128.605 85.1903 128.57 84.4148 128.514L84.4147 128.514ZM87.2441 129.242C87.1812 129.403 87.1183 129.564 87.0555 129.725C87.1742 129.711 87.2999 129.697 87.4256 129.683L87.2441 129.242ZM88.6273 128.661C88.3338 128.654 88.0404 128.654 87.7401 128.647L87.8169 128.843C88.4247 128.78 89.0324 128.71 89.6402 128.647C89.3048 128.647 88.9695 128.654 88.6274 128.661L88.6273 128.661ZM80.6565 118.343L82.2073 128.311C82.7942 128.234 83.3809 128.178 83.9607 128.129C83.9876 128.11 84.0188 128.097 84.0516 128.092C84.0845 128.087 84.118 128.09 84.1494 128.101L84.1633 128.115C85.1552 128.045 86.1403 127.996 87.1253 127.975C87.1983 127.954 87.2758 127.954 87.3489 127.975C87.7749 127.968 88.2011 127.961 88.6273 127.961C90.3877 127.968 92.141 128.01 93.8944 128.178C94.2786 128.22 94.6699 128.262 95.0541 128.311L95.0959 128.045L96.5979 118.343L80.6565 118.343ZM83.1225 127.73C82.8512 127.72 82.5943 127.605 82.4059 127.409C82.2174 127.214 82.1122 126.952 82.1122 126.68C82.1122 126.408 82.2174 126.147 82.4059 125.951C82.5943 125.755 82.8512 125.64 83.1225 125.63C83.3937 125.64 83.6505 125.755 83.8388 125.951C84.0272 126.147 84.1324 126.408 84.1324 126.68C84.1324 126.952 84.0272 127.213 83.8389 127.409C83.6505 127.605 83.3938 127.72 83.1226 127.73L83.1225 127.73ZM86.8948 127.73C86.6236 127.72 86.3667 127.605 86.1783 127.409C85.9898 127.214 85.8846 126.952 85.8846 126.68C85.8846 126.408 85.9898 126.147 86.1783 125.951C86.3667 125.755 86.6236 125.64 86.8948 125.63C87.1662 125.64 87.4232 125.755 87.6118 125.951C87.8003 126.146 87.9057 126.408 87.9057 126.68C87.9057 126.952 87.8004 127.214 87.6119 127.409C87.4233 127.605 87.1663 127.72 86.8949 127.73L86.8948 127.73ZM90.5412 127.604C90.2699 127.594 90.013 127.479 89.8246 127.283C89.6362 127.088 89.5309 126.826 89.5309 126.554C89.5309 126.282 89.6362 126.021 89.8246 125.825C90.013 125.629 90.2699 125.514 90.5412 125.504C90.8124 125.514 91.0692 125.629 91.2576 125.825C91.4459 126.021 91.5512 126.282 91.5512 126.554C91.5512 126.826 91.446 127.087 91.2576 127.283C91.0693 127.479 90.8126 127.594 90.5413 127.604L90.5412 127.604ZM94.125 127.73C93.8537 127.72 93.5968 127.605 93.4084 127.409C93.2199 127.214 93.1147 126.952 93.1147 126.68C93.1147 126.408 93.2199 126.147 93.4084 125.951C93.5968 125.755 93.8537 125.64 94.125 125.63C94.3962 125.64 94.653 125.755 94.8413 125.951C95.0297 126.147 95.1349 126.408 95.1349 126.68C95.1349 126.952 95.0297 127.213 94.8414 127.409C94.6531 127.605 94.3963 127.72 94.1251 127.73L94.125 127.73ZM93.154 129.13L92.9374 128.598L92.7138 129.172L91.6869 131.825C92.5671 131.874 93.4543 131.951 94.3415 132.077L93.154 129.13ZM90.4365 128.633L90.681 129.368L91.4144 131.587L92.4415 129.2L92.7278 128.528C91.9664 128.577 91.1981 128.612 90.4366 128.633H90.4365ZM90.2339 129.41L90.0872 128.997L89.9335 129.438L89.144 131.748C89.7938 131.755 90.4434 131.769 91.1 131.797L90.2339 129.41ZM89.6402 128.647C89.3047 128.647 88.9694 128.654 88.6273 128.661C88.3338 128.654 88.0404 128.654 87.7401 128.647L87.8168 128.843L88.1034 129.62L88.725 131.279L89.3956 129.494L89.71 128.647L89.6402 128.647ZM87.4256 129.683L87.2442 129.242C87.1812 129.403 87.1184 129.564 87.0555 129.725C86.783 130.418 86.5105 131.111 86.2241 131.797C86.9087 131.769 87.5935 131.748 88.278 131.741L87.4256 129.683ZM84.4148 128.514C84.5266 128.731 84.6313 128.955 84.7363 129.172C84.855 129.424 84.9738 129.669 85.0925 129.921C85.302 130.362 85.5116 130.796 85.7142 131.237C85.8958 130.754 86.0844 130.278 86.2661 129.802C86.3778 129.529 86.4896 129.249 86.6014 128.976C86.6433 128.857 86.6923 128.745 86.7411 128.626C85.9658 128.605 85.1903 128.57 84.4148 128.514H84.4148ZM93.1541 129.13L92.9375 128.598L92.7139 129.172L91.687 131.825C92.5672 131.874 93.4544 131.951 94.3416 132.077L93.1541 129.13ZM90.4365 128.633L90.6811 129.368L91.4145 131.587L92.4415 129.2L92.7279 128.528C91.9664 128.577 91.1981 128.612 90.4366 128.633L90.4365 128.633ZM90.2339 129.41L90.0873 128.997L89.9336 129.438L89.1441 131.748C89.7939 131.755 90.4435 131.769 91.1001 131.797L90.2339 129.41ZM89.6403 128.647C89.3048 128.647 88.9695 128.654 88.6273 128.661C88.3338 128.654 88.0405 128.654 87.7402 128.647L87.8169 128.843L88.1034 129.62L88.7251 131.279L89.3957 129.494L89.7101 128.647L89.6403 128.647ZM87.4257 129.683L87.2442 129.242C87.1813 129.403 87.1184 129.564 87.0556 129.725C86.7831 130.418 86.5105 131.111 86.2242 131.797C86.9088 131.769 87.5935 131.748 88.2781 131.741L87.4257 129.683ZM84.4148 128.514C84.5267 128.731 84.6314 128.955 84.7363 129.172C84.855 129.424 84.9739 129.669 85.0926 129.921C85.302 130.362 85.5116 130.796 85.7142 131.237C85.8959 130.754 86.0845 130.278 86.2661 129.802C86.3778 129.529 86.4897 129.249 86.6014 128.976C86.6434 128.857 86.6923 128.745 86.7411 128.626C85.9658 128.605 85.1903 128.57 84.4148 128.514L84.4148 128.514ZM89.6403 128.647C89.0325 128.71 88.4248 128.78 87.817 128.843L88.1035 129.62C88.5295 129.578 88.9627 129.536 89.3957 129.494L89.7101 128.647H89.6403ZM90.0873 128.997L89.9336 129.438C90.0314 129.431 90.1362 129.424 90.234 129.41L90.0873 128.997ZM90.4366 128.633L90.6812 129.368L92.4416 129.2L92.7279 128.528C91.9664 128.577 91.1981 128.612 90.4366 128.633L90.4366 128.633ZM92.9375 128.598L92.714 129.172C92.8606 129.158 93.0074 129.144 93.1541 129.13L92.9375 128.598ZM93.1192 128.5L93.3428 129.116L94.4114 132.077V132.084C94.4303 132.083 94.4493 132.085 94.4674 132.091L94.9564 128.962L95.0543 128.311C94.4046 128.395 93.7618 128.451 93.1192 128.5L93.1192 128.5ZM94.4046 132.098C94.4046 132.105 94.4046 132.119 94.3906 132.119C94.3831 132.122 94.3748 132.123 94.367 132.12C94.3593 132.117 94.3528 132.112 94.3487 132.105C92.4507 132.339 90.5397 132.451 88.6274 132.441C87.7263 132.434 86.825 132.413 85.9239 132.371C85.8792 132.404 85.8266 132.425 85.7714 132.431C85.7162 132.437 85.6603 132.428 85.6095 132.406C85.58 132.39 85.5519 132.371 85.5256 132.35C84.6175 132.294 83.7024 132.217 82.7942 132.091L83.2622 135.101H93.9994L94.4673 132.091C94.4462 132.09 94.425 132.092 94.4046 132.098L94.4046 132.098ZM85.5046 134.835C85.2327 134.826 84.975 134.711 84.7858 134.515C84.5966 134.32 84.4909 134.058 84.4909 133.785C84.4909 133.512 84.5966 133.25 84.7858 133.055C84.975 132.859 85.2327 132.744 85.5046 132.735C85.7765 132.744 86.0343 132.859 86.2235 133.055C86.4127 133.25 86.5184 133.512 86.5184 133.785C86.5184 134.058 86.4127 134.32 86.2235 134.515C86.0343 134.711 85.7765 134.826 85.5046 134.835V134.835ZM89.0254 134.835C88.7535 134.826 88.4957 134.711 88.3066 134.515C88.1174 134.32 88.0117 134.058 88.0117 133.785C88.0117 133.512 88.1174 133.25 88.3066 133.055C88.4957 132.859 88.7535 132.744 89.0254 132.735C89.2973 132.744 89.5551 132.859 89.7443 133.055C89.9334 133.25 90.0392 133.512 90.0392 133.785C90.0392 134.058 89.9334 134.32 89.7443 134.515C89.5551 134.711 89.2973 134.826 89.0254 134.835V134.835ZM92.5462 134.709C92.2743 134.7 92.0166 134.585 91.8274 134.39C91.6382 134.194 91.5325 133.932 91.5325 133.659C91.5325 133.386 91.6382 133.124 91.8274 132.929C92.0166 132.733 92.2743 132.618 92.5462 132.609C92.8181 132.618 93.0759 132.733 93.2651 132.929C93.4543 133.124 93.56 133.386 93.56 133.659C93.56 133.932 93.4543 134.194 93.2651 134.39C93.076 134.585 92.8182 134.7 92.5463 134.709H92.5462ZM93.1541 129.13L92.9375 128.598L92.7139 129.172L91.687 131.825C92.5672 131.874 93.4544 131.951 94.3416 132.077L93.1541 129.13ZM90.4365 128.633L90.6811 129.368L91.4145 131.587L92.4415 129.2L92.7279 128.528C91.9664 128.577 91.1981 128.612 90.4366 128.633L90.4365 128.633ZM90.2339 129.41L90.0872 128.997L89.9336 129.438L89.1441 131.748C89.7939 131.755 90.4435 131.769 91.1001 131.797L90.2339 129.41ZM89.6403 128.647C89.3048 128.647 88.9695 128.654 88.6273 128.661C88.3338 128.654 88.0405 128.654 87.7401 128.647L87.8169 128.843L88.1034 129.62L88.7251 131.279L89.3957 129.494L89.7101 128.647L89.6403 128.647ZM87.4257 129.683L87.2442 129.242C87.1813 129.403 87.1184 129.564 87.0556 129.725C86.7831 130.418 86.5105 131.111 86.2242 131.797C86.9088 131.769 87.5935 131.748 88.2781 131.741L87.4257 129.683ZM84.4148 128.514C84.5267 128.731 84.6314 128.955 84.7363 129.172C84.855 129.424 84.9739 129.669 85.0926 129.921C85.302 130.362 85.5116 130.796 85.7142 131.237C85.8959 130.754 86.0845 130.278 86.2661 129.802C86.3778 129.529 86.4897 129.249 86.6014 128.976C86.6434 128.857 86.6923 128.745 86.7411 128.626C85.9658 128.605 85.1903 128.57 84.4148 128.514L84.4148 128.514ZM84.5057 129.977C84.408 129.732 84.3031 129.48 84.2054 129.228C84.1494 129.095 84.1007 128.955 84.0447 128.822C83.9678 128.969 83.8841 129.123 83.8071 129.27C83.6674 129.543 83.5208 129.816 83.3741 130.089C83.1575 130.502 82.934 130.915 82.7035 131.328C82.7007 131.331 82.6974 131.333 82.6937 131.334C82.69 131.335 82.6862 131.335 82.6823 131.335L82.7942 132.091C83.6185 131.972 84.4499 131.902 85.2741 131.846C85.0226 131.223 84.7641 130.6 84.5057 129.977L84.5057 129.977ZM85.0926 129.921C85.302 130.362 85.5116 130.796 85.7142 131.237C85.8959 130.754 86.0845 130.278 86.2661 129.802C85.8749 129.837 85.4838 129.879 85.0926 129.921L85.0926 129.921ZM87.4257 129.683C87.3 129.697 87.1743 129.711 87.0556 129.725C86.7831 130.418 86.5105 131.111 86.2242 131.797C86.9088 131.769 87.5935 131.748 88.2781 131.741L87.4257 129.683ZM88.1035 129.62L88.7251 131.279L89.3958 129.494C88.9627 129.536 88.5295 129.578 88.1035 129.62L88.1035 129.62ZM90.234 129.41C90.1363 129.424 90.0314 129.431 89.9336 129.438L89.1442 131.748C89.794 131.755 90.4436 131.769 91.1002 131.797L90.234 129.41ZM90.6812 129.368L91.4145 131.587L92.4416 129.2L90.6812 129.368ZM93.1541 129.13C93.0074 129.144 92.8607 129.158 92.7139 129.172L91.687 131.825C92.5672 131.874 93.4544 131.951 94.3416 132.077L93.1541 129.13ZM82.2074 128.311L82.382 129.424L82.4937 130.18L82.6616 131.237C82.8083 130.859 82.9549 130.488 83.1016 130.117C83.2063 129.844 83.3182 129.578 83.4299 129.312C83.5416 129.032 83.6535 128.752 83.7722 128.472C83.2482 128.43 82.7313 128.374 82.2074 128.311Z" fill="black"/>
<path d="M89.5968 126.719C89.0137 126.194 88.582 125.521 88.3465 124.772C88.2367 124.398 88.0943 124.028 88.0105 123.646L87.7741 122.494C87.5813 120.943 87.5224 119.378 87.5981 117.817C87.6256 116.253 87.8589 114.712 88.0397 113.165C88.3226 111.638 88.5406 110.093 88.9107 108.585C89.2579 107.071 89.6052 105.557 90.044 104.069C90.4668 102.577 90.8728 101.08 91.3939 99.6194C91.8977 98.1538 92.3498 96.6721 92.9101 95.2279C93.477 93.7856 94.0151 92.3349 94.6057 90.9045C93.784 93.8928 92.8325 96.8307 92.0324 99.8127L91.4101 102.041L90.8372 104.281C90.6522 105.029 90.4287 105.768 90.2625 106.519L89.757 108.772C89.3729 110.265 89.1566 111.787 88.8481 113.294C88.6216 114.811 88.3834 116.33 88.2609 117.858C88.1102 119.382 88.0878 120.916 88.1937 122.444L88.3295 123.581C88.3798 123.96 88.4874 124.325 88.564 124.701C88.7383 125.448 89.093 126.141 89.5968 126.719Z" fill="black"/>
<path d="M82.6756 131.314L82.6616 131.237L82.6407 131.3C82.6337 131.314 82.6407 131.328 82.6546 131.342C82.6685 131.349 82.6756 131.342 82.6824 131.335L82.6756 131.314Z" fill="#FCFCFC"/>
<path d="M107.396 132.663C109.687 132.031 112.011 131.526 114.358 131.152C116.699 130.746 119.062 130.472 121.434 130.332C119.143 130.965 116.819 131.469 114.472 131.842C112.13 132.247 109.768 132.52 107.396 132.663V132.663Z" fill="black"/>
<path d="M135.124 132.356C137.415 131.724 139.739 131.22 142.085 130.845C144.427 130.44 146.789 130.166 149.161 130.025C146.871 130.658 144.546 131.163 142.2 131.535C139.858 131.94 137.496 132.213 135.124 132.356V132.356Z" fill="black"/>
<path d="M163.556 127.418C165.847 126.786 168.171 126.282 170.518 125.908C172.859 125.502 175.221 125.228 177.593 125.087C175.303 125.721 172.979 126.225 170.632 126.598C168.29 127.002 165.928 127.276 163.556 127.418V127.418Z" fill="black"/>
<path d="M282.288 171.651C280.829 170.66 279.544 169.433 278.485 168.021C277.399 166.636 276.42 165.17 275.557 163.636C274.688 162.107 273.904 160.534 273.18 158.934C272.456 157.331 271.781 155.72 271.178 154.048L271.842 154.463C268.34 154.917 264.782 154.609 261.41 153.559C259.735 153.067 258.098 152.455 256.51 151.728C254.922 151.021 253.376 150.224 251.88 149.339C248.897 147.581 246.061 145.584 243.399 143.368C240.738 141.164 238.222 138.791 235.865 136.264L235.853 136.252C235.77 136.161 235.725 136.042 235.726 135.919C235.727 135.796 235.775 135.678 235.861 135.589C236.878 134.535 237.931 133.555 239.023 132.602C240.109 131.646 241.255 130.759 242.426 129.907C243.596 129.044 244.842 128.29 246.148 127.653C247.455 126.956 248.899 126.557 250.378 126.484C250.407 126.484 250.435 126.489 250.463 126.498C251.85 126.979 253.25 127.426 254.642 127.891L258.825 129.273C261.61 130.208 264.413 131.087 267.211 131.982L266.672 132.275L270.341 116.883C271.579 111.756 272.839 106.635 274.122 101.52L274.105 101.6C274.195 101.161 274.333 100.733 274.516 100.324C274.676 99.9418 274.865 99.5855 275.053 99.228C275.446 98.5384 275.887 97.8769 276.371 97.2481C277.322 96.0137 278.381 94.8675 279.537 93.8235C281.819 91.7663 284.299 89.9429 286.943 88.3805C288.265 87.5847 289.635 86.8717 291.045 86.2458C292.46 85.6326 293.912 85.1067 295.392 84.671C298.354 83.792 301.424 83.3344 304.513 83.3118C307.597 83.2795 310.67 83.6919 313.637 84.5363C315.123 84.9616 316.57 85.5162 317.959 86.1937C318.303 86.3736 318.637 86.5731 318.976 86.7619L319.481 87.0492L319.963 87.3794C320.282 87.6024 320.608 87.8141 320.919 88.0466L321.814 88.7973C324.155 90.8643 325.817 93.5923 326.583 96.6231C327.248 99.6044 327.333 102.686 326.832 105.7C326.831 105.711 326.827 105.722 326.821 105.732C326.815 105.742 326.807 105.75 326.798 105.757C326.789 105.764 326.779 105.769 326.768 105.771C326.756 105.774 326.745 105.775 326.734 105.773C326.712 105.769 326.692 105.758 326.679 105.741C326.665 105.723 326.658 105.702 326.66 105.68C326.951 102.703 326.692 99.6983 325.895 96.8161C325.043 94.0004 323.374 91.5026 321.101 89.6409L320.239 88.9752C319.939 88.7703 319.625 88.5851 319.319 88.389L318.858 88.0987L318.372 87.8494C318.046 87.6855 317.727 87.5111 317.398 87.3554C316.065 86.7529 314.683 86.2646 313.267 85.8956C310.421 85.1624 307.484 84.8432 304.547 84.9478C303.082 84.9928 301.622 85.1415 300.178 85.3928C298.733 85.6291 297.304 85.9628 295.903 86.3916C294.503 86.8219 293.129 87.3373 291.791 87.935C290.458 88.5434 289.158 89.2231 287.898 89.9712C285.361 91.4782 282.968 93.2148 280.748 95.1592C279.655 96.1176 278.65 97.1726 277.746 98.3114C277.303 98.8692 276.899 99.4569 276.537 100.07C276.371 100.377 276.202 100.683 276.067 100.995C275.939 101.272 275.836 101.56 275.76 101.856L275.743 101.937C274.406 107.038 273.048 112.134 271.668 117.224L267.482 132.483L267.479 132.497C267.464 132.549 267.44 132.598 267.407 132.641C267.373 132.683 267.332 132.719 267.285 132.746C267.238 132.773 267.186 132.79 267.132 132.797C267.079 132.804 267.024 132.8 266.972 132.785L266.944 132.777C264.175 131.795 261.412 130.798 258.63 129.855L254.464 128.423C253.074 127.95 251.69 127.458 250.294 127.001L250.378 127.015C248.983 127.1 247.624 127.492 246.396 128.162C245.136 128.809 243.938 129.573 242.82 130.444C241.687 131.306 240.603 132.23 239.573 133.212C238.541 134.188 237.531 135.209 236.596 136.259L236.592 135.584C239.007 137.975 241.572 140.21 244.27 142.275C246.941 144.36 249.745 146.27 252.663 147.992C254.122 148.842 255.609 149.64 257.139 150.339C258.658 151.053 260.226 151.657 261.832 152.146C265.001 153.194 268.354 153.569 271.676 153.249L271.7 153.247C271.838 153.232 271.977 153.265 272.094 153.341C272.21 153.418 272.297 153.532 272.339 153.664C272.858 155.294 273.471 156.926 274.123 158.525C274.776 160.128 275.491 161.706 276.287 163.24C277.048 164.791 277.924 166.284 278.908 167.704C279.87 169.139 281.043 170.421 282.385 171.508C282.404 171.521 282.416 171.542 282.42 171.564C282.423 171.587 282.418 171.611 282.404 171.629C282.391 171.647 282.372 171.659 282.35 171.663C282.329 171.667 282.306 171.663 282.288 171.651Z" fill="black"/>
</svg>
