<svg width="40" height="22" viewBox="0 0 40 22" fill="none" xmlns="http://www.w3.org/2000/svg">
<path d="M7.66488 14.3851C10.36 14.3851 12.552 12.1926 12.552 9.49757C12.552 6.80249 10.3595 4.61047 7.66488 4.61047C4.97023 4.61047 2.77734 6.80249 2.77734 9.49757C2.77734 12.1926 4.9698 14.3851 7.66488 14.3851ZM7.66488 6.6668C9.22599 6.6668 10.4956 7.93646 10.4956 9.49757C10.4956 11.0587 9.22599 12.3283 7.66488 12.3283C6.10376 12.3283 4.8341 11.0582 4.8341 9.49757C4.8341 7.93689 6.10376 6.6668 7.66488 6.6668Z" fill="white"/>
<path d="M2.05676 21.5772C2.05676 19.4773 3.76491 17.7691 5.86486 17.7691H9.46485C9.57262 17.7691 9.67951 17.7735 9.7851 17.7826C10.0831 17.8084 10.3789 17.7085 10.5953 17.5095C10.8061 17.3154 10.9226 17.0501 10.9226 16.7626C10.9226 16.2381 10.5212 15.7883 10.0081 15.739C9.82916 15.722 9.6481 15.7128 9.46485 15.7128H5.86486C2.63094 15.7124 0 18.3433 0 21.5772V22H2.05676V21.5772Z" fill="white"/>
<path d="M11.2876 21.9996H13.3444V19.4677C13.3444 17.0941 15.2755 15.163 17.6494 15.163H21.6194C23.9929 15.163 25.9244 17.0941 25.9244 19.4677V21.9996H27.9812V19.4677C27.9812 17.3206 26.9031 15.3315 25.0972 14.1473C24.0588 13.4662 22.8563 13.1063 21.6198 13.1063H17.6499C15.6852 13.1063 13.8592 14.0007 12.6402 15.5601C11.7558 16.6914 11.2885 18.0427 11.2885 19.4677V21.9996H11.2876Z" fill="white"/>
<path d="M33.4029 15.7123H29.803C29.7022 15.7123 29.6023 15.7154 29.5028 15.7206C28.9482 15.7512 28.5137 16.2036 28.5137 16.7512C28.5137 17.0339 28.631 17.3066 28.8361 17.4999C29.0425 17.6941 29.3126 17.7914 29.5935 17.7752C29.6629 17.7709 29.7327 17.7691 29.803 17.7691H33.4029C35.5029 17.7691 37.2111 19.4773 37.2111 21.5772V22H39.2678V21.5772C39.2678 18.3433 36.6369 15.7123 33.4029 15.7123Z" fill="white"/>
<path d="M31.6029 14.3851C34.2979 14.3851 36.4904 12.1926 36.4904 9.49757C36.4904 6.80249 34.2979 4.61047 31.6029 4.61047C28.9078 4.61047 26.7153 6.80249 26.7153 9.49757C26.7153 12.1926 28.9082 14.3851 31.6029 14.3851ZM31.6029 6.6668C33.164 6.6668 34.4336 7.93646 34.4336 9.49757C34.4336 11.0587 33.1635 12.3283 31.6029 12.3283C30.0422 12.3283 28.7721 11.0582 28.7721 9.49757C28.7721 7.93689 30.0422 6.6668 31.6029 6.6668Z" fill="white"/>
<path d="M19.6339 12.2961C23.0236 12.2961 25.7819 9.53815 25.7819 6.14803C25.7819 2.75791 23.024 0 19.6339 0C16.2437 0 13.4858 2.75791 13.4858 6.14803C13.4858 9.53771 16.2437 12.2961 19.6339 12.2961ZM19.6339 2.05632C21.8896 2.05632 23.7251 3.89188 23.7251 6.14803C23.7251 8.40374 21.8896 10.2393 19.6339 10.2393C17.3777 10.2393 15.5422 8.40374 15.5422 6.14803C15.5422 3.89188 17.3777 2.05632 19.6339 2.05632Z" fill="white"/>
</svg>
