<svg width="31" height="31" viewBox="0 0 31 31" fill="none" xmlns="http://www.w3.org/2000/svg">
<path d="M10.3333 7.75001C9.61997 7.75001 9.04167 8.32831 9.04167 9.04168C9.04167 9.75505 9.61997 10.3333 10.3333 10.3333H20.6667C21.38 10.3333 21.9583 9.75505 21.9583 9.04168C21.9583 8.32831 21.38 7.75001 20.6667 7.75001H10.3333Z" fill="white"/>
<path d="M9.04167 14.2083C9.04167 13.495 9.61997 12.9167 10.3333 12.9167H20.6667C21.38 12.9167 21.9583 13.495 21.9583 14.2083C21.9583 14.9217 21.38 15.5 20.6667 15.5H10.3333C9.61997 15.5 9.04167 14.9217 9.04167 14.2083Z" fill="white"/>
<path d="M10.3333 18.0833C9.61997 18.0833 9.04167 18.6616 9.04167 19.375C9.04167 20.0884 9.61997 20.6667 10.3333 20.6667H15.5C16.2134 20.6667 16.7917 20.0884 16.7917 19.375C16.7917 18.6616 16.2134 18.0833 15.5 18.0833H10.3333Z" fill="white"/>
<path fill-rule="evenodd" clip-rule="evenodd" d="M6.45833 2.58334C5.0316 2.58334 3.875 3.73994 3.875 5.16668V25.8333C3.875 27.2601 5.0316 28.4167 6.45833 28.4167H24.5417C25.9684 28.4167 27.125 27.2601 27.125 25.8333V5.16668C27.125 3.73994 25.9684 2.58334 24.5417 2.58334H6.45833ZM24.5417 5.16668H6.45833L6.45833 25.8333H17.5178L24.5417 18.2242V5.16668ZM24.5417 25.8333H21.0335L24.5417 22.0328V25.8333Z" fill="white"/>
</svg>
