<svg width="27" height="27" viewBox="0 0 27 27" fill="none" xmlns="http://www.w3.org/2000/svg">
<path d="M13.5 19.125C14.1213 19.125 14.625 18.6213 14.625 18C14.625 17.3787 14.1213 16.875 13.5 16.875C12.8787 16.875 12.375 17.3787 12.375 18C12.375 18.6213 12.8787 19.125 13.5 19.125Z" fill="#252930"/>
<path fill-rule="evenodd" clip-rule="evenodd" d="M7.875 7.875V11.25H6.75C5.50736 11.25 4.5 12.2574 4.5 13.5V22.5C4.5 23.7426 5.50736 24.75 6.75 24.75H20.25C21.4926 24.75 22.5 23.7426 22.5 22.5V13.5C22.5 12.2574 21.4926 11.25 20.25 11.25H19.125V7.875C19.125 4.7684 16.6066 2.25 13.5 2.25C10.3934 2.25 7.875 4.7684 7.875 7.875ZM13.5 4.5C11.636 4.5 10.125 6.01104 10.125 7.875V11.25H16.875V7.875C16.875 6.01104 15.364 4.5 13.5 4.5ZM6.75 13.5V22.5H20.25V13.5H6.75Z" fill="#252930"/>
</svg>
