<svg width="38" height="41" viewBox="0 0 38 41" fill="none" xmlns="http://www.w3.org/2000/svg">
<path d="M37.7305 11.2761L33.3829 6.90197C33.2094 6.72723 32.9729 6.62906 32.7265 6.62906H23.5743V4.57415C23.5743 2.05182 21.5224 0 19 0C16.4777 0 14.4258 2.05182 14.4258 4.57415V6.62906H6.48319C5.9713 6.62906 5.55697 7.04399 5.55697 7.55525V16.3028C5.55697 16.8141 5.9713 17.229 6.48319 17.229H14.4252V20.0063H5.27417C5.0278 20.0063 4.7913 20.1045 4.61718 20.2793L0.269528 24.6533C-0.0898427 25.0146 -0.0898427 25.5981 0.269528 25.9593L4.61718 30.3328C4.7913 30.5075 5.0278 30.6057 5.27417 30.6057H14.4258V40.0738C14.4258 40.5851 14.8401 41 15.352 41H22.6481C23.1594 41 23.5743 40.5851 23.5743 40.0738V30.6063H31.5163C32.0275 30.6063 32.4425 30.1913 32.4425 29.6801V20.9325C32.4425 20.4213 32.0275 20.0063 31.5163 20.0063H23.5743V17.2284H32.7259C32.9723 17.2284 33.2088 17.1302 33.3823 16.9555L37.7299 12.582C38.0899 12.2208 38.0899 11.6373 37.7305 11.2761ZM16.2782 4.57353C16.2782 3.07248 17.4996 1.85176 19 1.85176C20.5005 1.85176 21.7219 3.0731 21.7219 4.57353V6.62844H16.2782V4.57353ZM21.7219 39.1482H16.2782V30.6063H21.7219V39.1482ZM30.5907 28.7539H5.65947L2.23248 25.3066L5.65947 21.8587H30.5907V28.7539ZM21.7219 20.0063H16.2782V17.2284H21.7219V20.0063ZM32.3406 15.376H7.4094V8.48082H32.3406L35.7676 11.9287L32.3406 15.376Z" fill="white"/>
</svg>
