<svg width="35" height="32" viewBox="0 0 35 32" fill="white"  xmlns="http://www.w3.org/2000/svg">
<path d="M33.15 29.5H30.95C31.15 29 31.25 28.5 31.25 27.9C31.25 26.8 30.85 25.8 30.05 25.1C30.75 24.4 31.25 23.4 31.25 22.3C31.25 21.2 30.85 20.2 30.05 19.5C30.75 18.8 31.25 17.8 31.25 16.7C31.25 16.1 31.15 15.6 30.95 15.1H33.15C33.55 15.1 34.05 14.9 34.25 14.5C34.45 14.1 34.45 13.6 34.25 13.3L28.85 3.9C28.55 3.3 28.15 3.1 27.75 3.1H25.25V2.4C25.85 2.3 26.35 1.8 26.35 1.2C26.35 0.500001 25.75 0 25.15 0H24.05H17.65H16.55C15.85 0 15.35 0.600001 15.35 1.2C15.35 1.8 15.85 2.3 16.45 2.4V3.1H6.75C6.35 3.1 5.85 3.3 5.65 3.7L0.15 13.1C-0.05 13.5 -0.05 14 0.15 14.3C0.35 14.7 0.75 14.9 1.25 14.9H3.65C3.45 15.4 3.35 15.9 3.35 16.5C3.35 17.6 3.75 18.6 4.55 19.3C3.75 20.1 3.35 21.1 3.35 22.2C3.35 23.3 3.75 24.3 4.55 25C3.85 25.7 3.35 26.7 3.35 27.8C3.35 28.4 3.45 28.9 3.65 29.4H1.25C0.55 29.4 0.0499996 30 0.0499996 30.6C0.0499996 31.2 0.65 31.8 1.25 31.8H7.35H11.05H17.05H27.15H33.15C33.85 31.8 34.35 31.2 34.35 30.6C34.35 30 33.85 29.5 33.15 29.5ZM22.75 2.4V6.3H18.85V2.4H22.75ZM7.45 5.6H16.35V7.5C16.35 8.2 16.95 8.7 17.55 8.7H23.95C24.65 8.7 25.15 8.1 25.15 7.5V5.6H26.85L30.85 12.5H27.05H26.85H7.45H3.45L7.45 5.6ZM12.35 29.5V20.7H15.85V29.5H12.35V29.5ZM18.35 29.5V19.4C18.35 18.7 17.75 18.2 17.15 18.2H11.15C10.45 18.2 9.95 18.8 9.95 19.4V29.5H7.55C6.65 29.5 5.95 28.8 5.95 27.9C5.95 27 6.65 26.3 7.55 26.3C8.25 26.3 8.75 25.7 8.75 25.1C8.75 24.5 8.15 23.9 7.55 23.9C6.65 23.9 5.95 23.2 5.95 22.3C5.95 21.4 6.65 20.7 7.55 20.7C8.25 20.7 8.75 20.1 8.75 19.5C8.75 18.9 8.15 18.3 7.55 18.3C6.65 18.3 5.95 17.6 5.95 16.7C5.95 15.8 6.65 15.1 7.55 15.1H27.15H27.35C28.25 15.1 28.95 15.8 28.95 16.7C28.95 17.6 28.25 18.3 27.35 18.3H20.95C20.25 18.3 19.75 18.9 19.75 19.5C19.75 20.1 20.35 20.7 20.95 20.7H27.35C28.25 20.7 28.95 21.4 28.95 22.3C28.95 23.2 28.25 23.9 27.35 23.9H20.95C20.25 23.9 19.75 24.5 19.75 25.1C19.75 25.7 20.35 26.3 20.95 26.3H27.35C28.25 26.3 28.95 27 28.95 27.9C28.95 28.8 28.25 29.5 27.35 29.5H18.35Z"/>
</svg>
