<svg width="1440" height="236" viewBox="0 0 1440 236" fill="none" xmlns="http://www.w3.org/2000/svg">
<g clip-path="url(#clip0)">
<rect width="1440" height="236" fill="#012A3E"/>
<path d="M377.253 80.004C384.288 80.004 391.074 81.019 397.567 82.7558L373.897 106.424C346.514 108.165 324.752 130.937 324.752 158.752C324.752 187.701 348.303 211.251 377.253 211.251C405.07 211.251 427.842 189.491 429.584 162.104L453.253 138.435C454.99 144.932 456.005 151.718 456.005 158.752C456.005 202.174 420.676 237.501 377.253 237.501C333.83 237.501 298.501 202.174 298.501 158.752C298.501 115.331 333.83 80.004 377.253 80.004ZM482.255 136.878H479.945C481.45 143.939 482.255 151.249 482.255 158.752C482.255 216.65 435.153 263.75 377.253 263.75C319.353 263.75 272.251 216.65 272.251 158.752C272.251 100.855 319.353 53.7545 377.253 53.7545C384.756 53.7545 392.067 54.5595 399.128 56.0644V53.7545C399.128 45.4509 401.771 37.4623 406.522 30.8343C397.103 28.6818 387.316 27.505 377.253 27.505C304.88 27.505 246 86.3826 246 158.752C246 231.122 304.88 290 377.253 290C449.626 290 508.506 231.122 508.506 158.752C508.506 148.69 507.329 138.904 505.176 129.484C498.548 134.235 490.559 136.878 482.255 136.878ZM522.76 71.1492L492.134 106.148C489.641 108.992 486.04 110.628 482.255 110.628H443.938L402.589 151.976C403.167 154.141 403.504 156.408 403.504 158.752C403.504 173.251 391.752 185.002 377.253 185.002C362.754 185.002 351.002 173.251 351.002 158.752C351.002 144.254 362.754 132.503 377.253 132.503C379.598 132.503 381.864 132.84 384.03 133.417L425.379 92.07V53.7545C425.379 49.9702 427.015 46.3696 429.859 43.8759L464.86 13.2515C468.242 10.2897 472.901 9.26158 477.215 10.5391C481.525 11.8122 484.889 15.1983 486.123 19.5208L492.869 43.1322L516.482 49.8783C520.804 51.112 524.195 54.4763 525.464 58.7856C526.733 63.0949 525.718 67.763 522.76 71.1492ZM489.374 69.4386L478.65 66.3761C474.288 65.1293 470.884 61.7212 469.633 57.3594L466.571 46.6365L451.63 59.7087V84.3789H476.301L489.374 69.4386Z" fill="white" fill-opacity="0.2"/>
<path d="M1236.77 89.7262C1237.5 86.9302 1238.61 84.3384 1239.97 81.9378L1246.93 93.7965C1244.78 104.86 1251.58 115.868 1262.63 118.749C1274.14 121.748 1285.94 114.827 1288.94 103.321C1291.82 92.2654 1285.53 80.9607 1274.82 77.4319L1267.87 65.5733C1270.63 65.5559 1273.43 65.8553 1276.23 66.584C1293.49 71.0816 1303.87 88.7819 1299.37 106.04C1294.87 123.298 1277.17 133.68 1259.92 129.182C1242.66 124.684 1232.28 106.984 1236.77 89.7262ZM1270.25 53.8852L1270.02 54.8033C1272.98 54.9366 1275.97 55.3738 1278.95 56.151C1301.96 62.1481 1315.8 85.747 1309.8 108.759C1303.81 131.77 1280.21 145.612 1257.2 139.615C1234.19 133.618 1220.35 110.019 1226.34 87.0073C1227.12 84.0252 1228.2 81.203 1229.53 78.5524L1228.61 78.3131C1225.31 77.453 1222.41 75.5753 1220.26 73.0004C1218.43 76.5211 1216.95 80.289 1215.91 84.2883C1208.41 113.052 1225.71 142.552 1254.48 150.048C1283.24 157.544 1312.74 140.241 1320.24 111.478C1327.73 82.7139 1310.43 53.2141 1281.67 45.718C1277.67 44.6758 1273.66 44.1298 1269.69 44.0097C1270.89 47.1361 1271.12 50.5849 1270.25 53.8852ZM1248.33 30.9789L1259.07 46.776C1259.94 48.0617 1260.21 49.6622 1259.82 51.1663L1255.85 66.395L1268 87.1115C1268.92 87.1063 1269.86 87.2071 1270.79 87.45C1276.55 88.9517 1280.01 94.8394 1278.51 100.602C1277 106.364 1271.12 109.818 1265.35 108.316C1259.59 106.814 1256.14 100.927 1257.64 95.1641C1257.88 94.232 1258.25 93.3662 1258.71 92.5653L1246.56 71.8488L1231.33 67.8801C1229.82 67.4881 1228.56 66.4649 1227.87 65.0763L1219.32 47.9936C1218.49 46.3427 1218.57 44.3843 1219.52 42.8021C1220.47 41.2213 1222.17 40.2348 1224.01 40.1922L1234.1 39.9566L1239.22 31.2709C1240.16 29.6807 1241.85 28.6816 1243.69 28.6237C1245.54 28.5658 1247.29 29.4527 1248.33 30.9789ZM1244.19 44.0708L1241.86 48.0154C1240.91 49.6199 1239.21 50.6197 1237.34 50.6652L1232.76 50.7717L1236.41 58.0639L1246.22 60.6192L1248.77 50.8139L1244.19 44.0708Z" fill="white" fill-opacity="0.05"/>
</g>
<defs>
<clipPath id="clip0">
<rect width="1440" height="236" fill="white"/>
</clipPath>
</defs>
</svg>
