<svg width="30" height="30" viewBox="0 0 30 30" fill="none" xmlns="http://www.w3.org/2000/svg">
<path d="M14.0628 7.50043C14.8166 7.50043 15.5436 7.60918 16.2393 7.79527L13.7033 10.3312C10.7693 10.5177 8.43769 12.9575 8.43769 15.9378C8.43769 19.0394 10.961 21.5627 14.0628 21.5627C17.0432 21.5627 19.4831 19.2311 19.6697 16.2968L22.2057 13.7609C22.3918 14.457 22.5005 15.184 22.5005 15.9378C22.5005 20.59 18.7153 24.3751 14.0628 24.3751C9.41037 24.3751 5.62513 20.59 5.62513 15.9378C5.62513 11.2855 9.41037 7.50043 14.0628 7.50043ZM25.3131 13.5941H25.0656C25.2268 14.3506 25.3131 15.1339 25.3131 15.9378C25.3131 22.1411 20.2664 27.1876 14.0628 27.1876C7.85924 27.1876 2.81256 22.1411 2.81256 15.9378C2.81256 9.73445 7.85924 4.68798 14.0628 4.68798C14.8667 4.68798 15.65 4.77423 16.4066 4.93548V4.68798C16.4066 3.79831 16.6898 2.94239 17.1988 2.23225C16.1896 2.00163 15.141 1.87553 14.0628 1.87553C6.30858 1.87553 0 8.18385 0 15.9378C0 23.6917 6.30858 30 14.0628 30C21.8171 30 28.1256 23.6917 28.1256 15.9378C28.1256 14.8597 27.9995 13.8111 27.7689 12.8019C27.0587 13.3109 26.2028 13.5941 25.3131 13.5941ZM29.6529 6.55169L26.3715 10.3016C26.1043 10.6063 25.7185 10.7816 25.3131 10.7816H21.2077L16.7774 15.2117C16.8393 15.4437 16.8754 15.6865 16.8754 15.9378C16.8754 17.4912 15.6163 18.7502 14.0628 18.7502C12.5093 18.7502 11.2503 17.4912 11.2503 15.9378C11.2503 14.3844 12.5093 13.1253 14.0628 13.1253C14.3141 13.1253 14.5569 13.1614 14.7889 13.2233L19.2192 8.79321V4.68798C19.2192 4.28252 19.3945 3.89675 19.6992 3.62956L23.4493 0.348375C23.8116 0.0310377 24.3109 -0.0791169 24.7731 0.0577555C25.2348 0.194159 25.5953 0.556965 25.7275 1.02008L26.4503 3.54988L28.9802 4.27268C29.4433 4.40486 29.8066 4.76532 29.9425 5.22703C30.0785 5.68874 29.9697 6.18889 29.6529 6.55169ZM26.0757 6.36842L24.9268 6.0403C24.4595 5.90671 24.0948 5.54156 23.9607 5.07422L23.6326 3.92534L22.0317 5.32594V7.96917H24.6751L26.0757 6.36842Z" fill="white"/>
</svg>
