<?xml version="1.0" encoding="utf-8"?>
<svg version="1.1" id="logo-zerozerohuit" xmlns="http://www.w3.org/2000/svg" xmlns:xlink="http://www.w3.org/1999/xlink" x="0px"
     y="0px" viewBox="0 0 70.36 87.75" style="enable-background:new 0 0 70.36 87.75;" xml:space="preserve">
<style type="text/css">
	.st0{fill:#FFFFFF;}
</style>
    <g id="HUIT">
	<path class="st0" d="M17.24,70.85h2.07V87.4h-2.07v-7.59H2.07v7.59H0V70.85h2.07v7.24h15.17V70.85z"/>
        <path class="st0" d="M42.77,70.85v8.28c0,0.98-0.01,1.87-0.04,2.67c-0.03,0.8-0.11,1.53-0.25,2.17s-0.36,1.2-0.66,1.67
		s-0.73,0.87-1.29,1.18s-1.27,0.55-2.14,0.7c-0.87,0.15-1.93,0.23-3.2,0.23h-4.85c-1.26,0-2.33-0.08-3.2-0.23
		c-0.87-0.15-1.58-0.39-2.14-0.7s-0.99-0.71-1.3-1.18s-0.53-1.03-0.67-1.67s-0.22-1.36-0.24-2.17s-0.03-1.7-0.03-2.67v-8.28h2.07
		v8.28c0,1.03,0.01,1.92,0.03,2.67c0.02,0.74,0.08,1.37,0.18,1.88s0.26,0.92,0.48,1.23c0.22,0.31,0.53,0.55,0.94,0.71
		c0.41,0.17,0.93,0.27,1.56,0.33c0.63,0.05,1.4,0.08,2.32,0.08h4.85c0.91,0,1.68-0.03,2.32-0.08c0.63-0.05,1.15-0.16,1.56-0.33
		s0.72-0.4,0.94-0.71c0.22-0.31,0.39-0.72,0.49-1.23c0.1-0.51,0.16-1.14,0.18-1.88c0.01-0.74,0.02-1.63,0.02-2.67l-0.01-8.28H42.77z
		"/>
        <path class="st0" d="M46.22,70.85h2.07V87.4h-2.07V70.85z"/>
        <path class="st0" d="M70.36,70.85v1.72h-8.28V87.4h-2.07V72.57h-8.28v-1.72H70.36z"/>
</g>
    <path id="ZERO-3" class="st0" d="M23.05,62.27c-0.08-0.09-0.14-0.19-0.21-0.29c-0.58,0.1-1.18,0.15-1.78,0.15
	c-3.36,0-5.85-1.27-7.48-3.8s-2.45-6.37-2.45-11.53c0-1.94,0.13-4.02,0.38-6.26c0.25-2.23,0.63-4.63,1.13-7.19
	c0.72-3.5,1.5-6.66,2.33-9.47s1.73-5.22,2.71-7.22c1.98-4.12,4.13-7.18,6.45-9.16s4.93-2.98,7.81-2.98c0.53,0,1.03,0.05,1.52,0.12
	c1.1-0.97,2.23-1.85,3.41-2.61c0.63-0.41,1.27-0.77,1.92-1.12C36.96,0.31,34.99,0,32.82,0c-4.52,0-8.68,1.24-12.5,3.71
	c-3.81,2.47-7.15,6.06-10,10.79c-2.57,4.35-4.57,9.19-5.98,14.54S2.22,39.76,2.22,45.18c0,6.69,1.58,11.97,4.75,15.83
	s7.5,5.79,12.99,5.79c2.39,0,4.68-0.36,6.88-1.07C25.45,64.78,24.17,63.64,23.05,62.27z"/>
    <path id="ZERO-2" class="st0" d="M40.63,11.58c0.69,2.25,1.03,5.01,1.03,8.31c0,1.88-0.13,3.93-0.38,6.17
	c-0.25,2.23-0.64,4.66-1.18,7.29c-0.72,3.56-1.51,6.77-2.35,9.61s-1.73,5.24-2.64,7.17c-0.98,2.06-2.03,3.84-3.13,5.37
	c0.25,0.65,0.54,1.24,0.87,1.75c0.88,1.36,2.04,2.21,3.56,2.61c2.2-2.11,4.2-4.68,6-7.7c2.57-4.28,4.57-9.08,5.98-14.4
	s2.12-10.69,2.12-16.14c0-6.06-1.29-10.94-3.86-14.66c-1.28,0.4-2.49,1.08-3.63,2.06C42.21,9.71,41.41,10.57,40.63,11.58z"/>
    <path id="ZERO-1" class="st0" d="M66.28,10.71c-0.74-1.85-1.7-3.49-2.88-4.93s-2.53-2.62-4.04-3.52C56.84,0.75,53.87,0,50.43,0
	c-3.27,0-6.36,0.66-9.26,1.96c-0.6,0.27-1.2,0.56-1.79,0.88c-0.49,0.27-0.97,0.56-1.45,0.87c-0.75,0.48-1.47,1.02-2.18,1.59
	c-1.56,1.25-3.03,2.69-4.41,4.36c-1.21,1.45-2.34,3.07-3.41,4.84c-0.64,1.09-1.25,2.2-1.82,3.35c-1.43,2.87-2.6,5.97-3.57,9.23
	c-0.19,0.65-0.41,1.29-0.58,1.96s-0.34,1.34-0.5,2.01c-1.08,4.69-1.62,9.4-1.62,14.13c0,6.69,1.58,11.97,4.75,15.83
	c0.12,0.15,0.25,0.27,0.37,0.41c1.24,1.42,2.65,2.55,4.23,3.41c0.85,0.46,1.75,0.86,2.7,1.16c0.58,0.18,1.17,0.33,1.79,0.45
	c1.23,0.24,2.53,0.36,3.9,0.36c4.49,0,8.65-1.25,12.47-3.75c0.48-0.31,0.95-0.64,1.41-0.99c2.31-1.74,4.43-3.92,6.35-6.54
	c0.77-1.05,1.51-2.17,2.21-3.35c0.43-0.71,0.82-1.46,1.21-2.21c1.98-3.71,3.59-7.76,4.76-12.19c0.53-1.99,0.96-4,1.29-6.01
	c0.11-0.67,0.21-1.34,0.3-2.01c0.18-1.34,0.31-2.69,0.4-4.05c0.04-0.68,0.08-1.35,0.1-2.03s0.03-1.36,0.03-2.04
	C68.13,17.42,67.52,13.78,66.28,10.71z M59.26,21.34c-0.05,1.47-0.16,3.05-0.35,4.73c-0.25,2.23-0.64,4.66-1.18,7.29
	c-0.18,0.89-0.36,1.76-0.55,2.6c-0.56,2.54-1.16,4.87-1.8,7.01c-0.21,0.71-0.43,1.39-0.64,2.05c-0.65,1.96-1.31,3.67-1.99,5.13
	c-0.72,1.5-1.47,2.86-2.25,4.08c-1.3,2.03-2.68,3.67-4.16,4.92c-0.88,0.75-1.79,1.36-2.73,1.83c-1.57,0.78-3.21,1.17-4.94,1.17
	c-1.49,0-2.81-0.27-3.96-0.77c-0.14-0.06-0.29-0.11-0.43-0.18c-0.31-0.16-0.61-0.34-0.9-0.53c-0.57-0.4-1.09-0.87-1.55-1.42
	c-0.23-0.28-0.45-0.57-0.65-0.89c-0.21-0.33-0.41-0.68-0.59-1.06c-0.53-1.06-0.94-2.3-1.24-3.72c-0.41-1.92-0.61-4.17-0.61-6.75
	c0-0.73,0.04-1.5,0.07-2.26c0.06-1.28,0.15-2.6,0.31-4c0.13-1.12,0.28-2.27,0.47-3.47c0.19-1.2,0.41-2.44,0.66-3.72
	c0.18-0.88,0.36-1.73,0.55-2.56s0.38-1.64,0.57-2.43c0.39-1.58,0.79-3.07,1.21-4.48c0.21-0.7,0.42-1.38,0.64-2.03
	c0.65-1.96,1.34-3.69,2.07-5.19c0.49-1.03,1-2,1.52-2.89c0.97-1.68,1.97-3.12,3.01-4.33c0.63-0.73,1.27-1.38,1.92-1.94
	c1.14-0.97,2.35-1.71,3.63-2.2c1-0.39,2.04-0.63,3.12-0.73c0.35-0.03,0.71-0.05,1.07-0.05c3.23,0,5.66,1.29,7.3,3.87
	c0.41,0.64,0.76,1.37,1.07,2.17c0.76,2,1.21,4.5,1.34,7.49c0.03,0.6,0.04,1.21,0.04,1.85C59.28,20.36,59.27,20.84,59.26,21.34z"/>
</svg>
